<?xml version="1.0" encoding="utf-8"?>
<!-- Generator: Adobe Illustrator 27.5.0, SVG Export Plug-In . SVG Version: 6.00 Build 0)  -->
<svg version="1.1" xmlns="http://www.w3.org/2000/svg" xmlns:xlink="http://www.w3.org/1999/xlink" x="0px" y="0px"
	 viewBox="0 0 500 500" style="enable-background:new 0 0 500 500;" xml:space="preserve">
<g id="BACKGROUND">
	<rect x="-0.652" style="fill:#FFFFFF;" width="500" height="500"/>
</g>
<g id="OBJECTS">
	<path style="fill:#D3D0DB;" d="M73.968,425.968l28.387-16.516l309.161-1.032l20.645,16.516c0,0,42.323-48.516,21.161-92.903
		c-21.161-44.387-50.065-52.645-42.839-88.774c7.226-36.129,15.484-101.161-13.419-132.645S261.323,56.419,194.742,87.387
		c-66.581,30.968-66.581,88.258-82.064,118.71s-48.516,38.193-60.903,66.581S27.516,374.871,73.968,425.968z"/>
	<g>
		<defs>
			<path id="SVGID_1_" d="M453.323,332.032c-21.161-44.387-50.065-52.645-42.839-88.774c7.226-36.129,15.484-101.161-13.419-132.645
				c-15.876-17.293-55.265-31.936-98.581-36.494V59.516h-78.452v19.027c-8.866,2.241-17.366,5.158-25.29,8.844
				c-66.581,30.968-66.581,88.258-82.064,118.71c-15.484,30.452-48.516,38.194-60.903,66.581s-24.258,102.194,22.193,153.29
				l28.387-16.516l309.161-1.032l20.645,16.516C432.161,424.935,474.484,376.419,453.323,332.032z"/>
		</defs>
		<clipPath id="SVGID_00000146468277360347391860000005719340380430128564_">
			<use xlink:href="#SVGID_1_"  style="overflow:visible;"/>
		</clipPath>
		<g style="clip-path:url(#SVGID_00000146468277360347391860000005719340380430128564_);">
			<path style="fill:#FFFFFF;" d="M353.326,279.65c-0.721-4.137-4.772-6.89-10.795-8.353c-1.931-16.767-9.769-78.841-22.112-99.523
				l-0.002,0.009c-0.001-0.003,0-0.012-0.001-0.014c-0.143-0.219-7.262-2.492-16.157-5.26l0,0c-0.458-0.143-0.917-0.285-1.383-0.43
				l0.12-1.02l-7.22-1.8l-0.1,0.58c-2.044-0.631-4.095-1.263-6.102-1.88c-0.137-0.166-9.498-11.504-12.341-16.187l-0.346-3.323
				l-0.373-3.586c0.208-0.205,0.398-0.4,0.551-0.574c1.452-1.645,2.835-6.004,2.835-6.004l-0.001,0.001
				c0.311-0.547,0.587-1.079,0.779-1.545c0.176-0.426,0.469-1.511,0.826-2.973l-0.001,0.006c0,0,3.304-3.613,4.207-5.936l0.516,1.29
				l1.859-9.936l1.496,2.968v-9.507c0,0,5.936-2.364,5.032-8.816c-0.525-3.752-2.125-6.128-4.174-8.025
				c-0.015-2.083-0.125-5.205-0.6-7.459c-0.774-3.677-4.064-10.258-7.935-14.322c-3.871-4.065-7.161-4.452-11.226-4.065
				c-4.065,0.387-3.677-0.968-7.936-0.581c-4.258,0.387-17.613,3.871-20.71,8.129c-2.253,3.098-5.012,8.846-6.351,11.756
				c-1.055,0.338-2.042,0.718-2.939,1.148c0,0-2.387,2.968-2.258,6.839c0.129,3.871,2.715,6.58,2.715,6.581l-0.457,9.29l1.355-0.968
				l1.328,13.278c0.098,2.86,0.215,5.737,0.308,7.912l-0.474,5.326l0.677-0.968c0,0,1.161,3.387,2.226,4.935
				c1.064,1.548,4.161,5.323,4.161,5.323l-0.774-2.226c0,0,2.226,2.323,2.807,3.194c0.472,0.708,3.31,3.015,4.356,3.853
				c0.07,0.522,0.118,1.017,0.13,1.447l-3.694,2.964l-1.36,1.09c0,0.002,0.001,0.004,0.001,0.006l-0.004-0.005l-3.285,7.211
				c-4.64,1.619-9.963,3.486-15.032,5.289c-0.24,0.09-0.48,0.17-0.72,0.26l0.06-1.79c0,0-7.48,2.32-7.74,3.09
				c-0.18,0.53-0.35,1.08-0.51,1.65c-6.17,2.26-10.68,4-10.91,4.35c0,0-6.99,12.19-15.27,30.6
				c-5.237,11.681-10.984,25.874-15.774,41.051c-3.072,0.155-6.058,2.159-9.146,4.679c-2.32,1.89-5.21,5.89-6.84,9.08
				c-0.83,1.6-1.33,3-1.29,3.82c0.06,1.22,1.45,4.18,3.06,7.01v0.01c0.066,0.115,0.134,0.227,0.2,0.342l-3.26,1.328l1,1.84
				l1.35,2.47l3.591-1.508c0.606,0.803,1.146,1.409,1.539,1.668c0.096,0.064,0.203,0.121,0.311,0.176
				c-0.024,4.205-0.003,9.081,0.205,10.535c0.153,1.07,1.315,3.006,2.662,4.957l-10.292,8.203c0,0,0,0.006,0.001,0.01l-1.357,4.64
				c0,0,1.61,9.2,11.19,17.53c6.32,5.5,16.11,10.62,31.2,12.47l0.569-0.304l-1.739,10.744l-11.27,69.62l17.8,0.21l2.01,0.021
				l86.69,1.009l21.22,0.25l5.06,0.06c0,0-2.24-16.7-5.02-37.64c0.6-1.11,1.08-1.84,1.08-1.84l-0.71-8.78h-1.79
				c-3.212-24.255-6.754-51.179-8.361-64.156c5.912,1.485,15.547,3.9,22.24,5.577c2.822,0.708,5.122,1.284,6.392,1.603
				c0.002,0,0.004,0,0.006,0c0.689,0.173,1.086,0.272,1.086,0.272c5.667-1.596,12.281-13.52,12.281-13.52l0,0
				C349.33,291.704,354.029,283.695,353.326,279.65z M203.637,262.402l1.899-2.865c0.042,0.916,0.084,1.824,0.125,2.725
				C204.967,262.28,204.284,262.33,203.637,262.402z M308.901,275.845c-0.305-0.067-0.609-0.134-0.915-0.201l-0.958-8.055
				l2.438,6.372C309.466,273.96,309.115,274.773,308.901,275.845z M282.433,123.78c0.332-1.475,0.679-3.054,1.016-4.611
				c0.039-0.023,0.068-0.04,0.068-0.04L282.433,123.78z M248.516,145.548L248.516,145.548c0,0.001,0,0.001,0,0.001L248.516,145.548z
				"/>
			<g>
				<path style="fill:#FFFFFF;" d="M365.089,264.601l0.141,0.24c2.543,4.399,5.609,5.401,7.879,5.401
					c1.458,0,2.577-0.414,3.024-0.613c0.605,2.966,1.491,6.396,2.759,10.132c-1.408-1.773-4.59-4.25-10.612-2.071l-0.257,0.091
					l0.166,0.224c2.651,3.637,5.435,4.581,7.597,4.581c1.881,0,3.281-0.696,3.761-0.978c1.002,2.742,2.22,5.625,3.678,8.599
					c-1.715-1.541-5.112-3.256-10.521-0.489l-0.248,0.124l0.19,0.199c2.659,2.825,5.169,3.654,7.183,3.654
					c2.237,0,3.852-1.003,4.449-1.433c1.499,2.85,3.231,5.766,5.236,8.699c-1.781-1.45-5.319-3.073-10.646,0.108l-0.24,0.141
					l0.199,0.191c2.626,2.436,4.996,3.19,6.934,3.19c2.759,0,4.598-1.525,4.987-1.872c0.24,0.331,0.472,0.671,0.721,1.003
					c1.624,2.187,3.09,4.49,4.424,6.884c-1.558-1.508-5.252-3.861-11.151-0.365l-0.232,0.141l0.199,0.19
					c2.626,2.452,5.004,3.206,6.942,3.206c2.701,0,4.54-1.475,4.962-1.847c1.317,2.469,2.485,5.012,3.538,7.58
					c-1.533-1.632-4.962-3.927-10.861-1.094l-0.249,0.116l0.19,0.207c2.668,2.982,5.228,3.827,7.274,3.827
					c2.179,0,3.77-0.953,4.333-1.342c1.441,3.753,2.634,7.539,3.62,11.226c-1.4-1.765-4.614-4.275-10.654-2.03l-0.265,0.099
					l0.166,0.224c2.659,3.579,5.426,4.507,7.58,4.507c1.731,0,3.065-0.596,3.662-0.92c0.787,3.123,1.425,6.147,1.939,8.989
					c-1.21-1.906-4.134-4.764-10.414-3.148l-0.265,0.066l0.141,0.24c2.56,4.316,5.592,5.319,7.854,5.319
					c1.408,0,2.51-0.389,3.007-0.605c0.87,5.186,1.342,9.635,1.591,12.75h0.414c-0.249-3.14-0.721-7.63-1.599-12.858
					c1.201,0,7.149-0.431,8.077-8.773l0.033-0.273l-0.273,0.05c-6.296,1.094-7.837,4.813-8.177,7.058
					c-0.522-2.841-1.16-5.865-1.947-8.989c1.044-0.099,7.125-1.027,7.183-9.569l0.008-0.282l-0.265,0.083
					c-6.189,1.756-7.307,5.65-7.406,7.904c-0.986-3.687-2.187-7.481-3.637-11.242c1.259-0.257,6.884-1.889,6.18-10.165l-0.025-0.273
					l-0.257,0.099c-5.915,2.287-6.735,6.189-6.652,8.467c-1.027-2.51-2.179-4.987-3.455-7.398c1.475-0.489,6.487-2.742,5.112-10.621
					l-0.041-0.273l-0.249,0.124c-5.517,2.701-6.13,6.503-5.915,8.79c-1.251-2.187-2.61-4.308-4.101-6.321
					c-0.232-0.306-0.439-0.605-0.654-0.911c1.508-0.505,6.445-2.792,5.062-10.621l-0.05-0.273l-0.249,0.124
					c-5.907,2.916-6.18,7.083-5.824,9.279c-2.096-3.04-3.902-6.056-5.451-9.005c1.176-0.265,6.884-1.98,5.965-10.323l-0.025-0.282
					l-0.257,0.108c-6.321,2.618-6.661,6.976-6.396,9.13c-1.599-3.19-2.916-6.271-3.985-9.196c1.408-0.166,6.976-1.334,7.1-9.494
					l0.008-0.273l-0.265,0.075c-6.247,1.715-7.373,5.642-7.473,7.895c-1.276-3.745-2.171-7.183-2.775-10.148
					c1.375-0.008,7.083-0.538,8.077-8.69l0.033-0.273l-0.273,0.041c-6.205,1.019-7.829,4.623-8.227,6.868
					c-0.895-5.045-0.969-8.384-0.969-9.005c0.82-0.506,5.948-4.084,2.104-11.797l-0.124-0.249l-0.207,0.182
					c-6.437,5.957-2.676,11.192-2.187,11.814c0,0.538,0.05,4.059,1.027,9.436c-1.143-1.914-4.035-4.929-10.43-3.355L365.089,264.601
					z M375.022,258.114c-0.655-0.853-3.736-5.493,2.013-10.977C380.465,254.303,375.933,257.551,375.022,258.114z M415.251,336.544
					c-0.994,7.729-6.512,8.127-7.63,8.127c-0.008,0-0.008,0-0.017,0C407.514,343.594,407.447,338.026,415.251,336.544z
					 M407.124,344.679c0.008,0.033,0.008,0.066,0.017,0.099c-1.019,0.481-6.155,2.452-10.289-4.275
					C404.307,338.714,406.677,343.536,407.124,344.679z M412.095,324.862c-0.182,7.945-5.691,8.79-6.76,8.881
					C405.136,332.691,404.481,327.157,412.095,324.862z M404.763,333.611c0.025,0.108,0.058,0.207,0.083,0.306
					c-1.06,0.63-5.899,2.974-10.637-3.198C401.159,328.259,404.017,332.244,404.763,333.611z M407,311.201
					c0.547,7.928-4.863,9.27-5.915,9.461C400.787,319.627,399.627,314.184,407,311.201z M400.671,320.845
					c-0.862,0.638-5.542,3.653-10.952-2.171C396.943,315.344,400.115,319.917,400.671,320.845z M396.487,310.837
					c-0.464-1.773-0.878-6.197,5.269-9.328c1.193,7.597-3.695,9.535-4.946,9.908C396.702,311.218,396.595,311.027,396.487,310.837z
					 M396.288,311.665c-0.804,0.712-5.203,4.126-11.093-1.21C392.096,306.512,395.658,310.795,396.288,311.665z M390.704,301.948
					c-0.48-1.5-1.384-6.296,5.145-9.651c1.21,7.564-3.77,9.56-4.954,9.925C390.837,302.13,390.771,302.039,390.704,301.948z
					 M390.414,302.461c-0.804,0.721-5.194,4.142-11.101-1.176C386.206,297.325,389.785,301.591,390.414,302.461z M390.224,282.073
					c0.737,7.912-4.631,9.386-5.683,9.602C384.218,290.647,382.934,285.229,390.224,282.073z M383.853,291.468
					c0.075,0.141,0.157,0.29,0.232,0.431c-0.961,0.737-5.501,3.662-10.952-1.939C379.52,286.82,382.826,290.101,383.853,291.468z
					 M386.628,272.289c-0.257,7.928-5.741,8.74-6.826,8.823c-0.008-0.025-0.017-0.041-0.025-0.058
					C379.578,279.869,379.114,274.476,386.628,272.289z M379.363,281.245c-0.928,0.555-5.89,3.082-10.679-3.256
					C376.206,275.404,378.907,280.275,379.363,281.245z M384.168,261.105c-1.085,7.837-6.627,8.061-7.713,8.044
					c-0.008-0.033-0.008-0.066-0.017-0.099C376.372,267.782,376.546,262.472,384.168,261.105z M365.727,264.875
					c7.746-1.781,9.925,3.347,10.273,4.366C375.03,269.696,369.819,271.684,365.727,264.875z"/>
				<path style="fill:#FFFFFF;" d="M421.125,279.729c0.066,2.734,0.174,5.559,0.315,8.434c-0.986-2.046-3.554-5.136-9.883-4.333
					l-0.273,0.033l0.116,0.257c2.303,5.31,5.783,6.321,8.102,6.321c0.92,0,1.649-0.157,2.046-0.265
					c0.157,2.751,0.348,5.551,0.555,8.367c-0.945-1.996-3.546-5.352-10.132-4.333l-0.273,0.041l0.116,0.249
					c2.378,5.087,5.741,6.106,8.053,6.106c1.11,0,1.972-0.232,2.369-0.365c0.232,2.966,0.489,5.948,0.771,8.906
					c-1.069-1.939-3.869-5.12-10.389-3.695l-0.265,0.058l0.133,0.24c2.502,4.598,5.65,5.609,7.937,5.609
					c1.276,0,2.27-0.315,2.742-0.497c0.282,2.908,0.58,5.799,0.886,8.632c-0.936-1.955-3.587-5.418-10.314-4.2l-0.265,0.05
					l0.124,0.249c2.427,4.871,5.7,5.89,8.003,5.89c1.276,0,2.245-0.315,2.626-0.456c0.34,3.09,0.696,6.106,1.044,9.014
					c-1.102-1.955-3.902-4.996-10.297-3.629l-0.273,0.058l0.133,0.24c2.494,4.639,5.658,5.65,7.945,5.65
					c1.268,0,2.253-0.306,2.717-0.48c0.423,3.422,0.845,6.677,1.251,9.701c-1.019-1.93-3.778-5.244-10.405-3.836l-0.273,0.058
					l0.132,0.24c2.494,4.639,5.658,5.65,7.945,5.65c1.359,0,2.402-0.356,2.817-0.522c0.489,3.587,0.944,6.81,1.35,9.56
					c-1.044-1.905-3.869-5.228-10.521-3.662l-0.265,0.066l0.132,0.24c2.535,4.465,5.625,5.476,7.895,5.476
					c1.45,0,2.56-0.406,2.983-0.588c0.199,1.375,0.389,2.61,0.555,3.678h0.414c-0.166-1.085-0.356-2.336-0.563-3.736
					c1.433,0,7.075-0.53,8.144-8.607l0.033-0.273l-0.273,0.042c-5.965,0.919-7.738,4.258-8.243,6.512
					c-0.373-2.568-0.787-5.518-1.226-8.757h0.124c1.607,0,6.992-0.596,8.202-8.425l0.042-0.273l-0.273,0.033
					c-6.048,0.795-7.862,4.159-8.4,6.396c-0.381-2.842-0.771-5.882-1.168-9.063h0.232c1.607,0,6.992-0.596,8.202-8.425l0.041-0.273
					l-0.273,0.033c-6.263,0.82-7.986,4.399-8.45,6.636c-0.34-2.833-0.679-5.758-1.011-8.757c0.083,0.008,0.182,0.008,0.307,0.008
					c1.814,0,6.851-0.696,8.243-8.177l0.05-0.273l-0.273,0.025c-6.039,0.613-7.97,3.885-8.583,6.106
					c-0.282-2.601-0.547-5.252-0.812-7.92h0.207c1.566,0,7.017-0.58,8.193-8.467l0.042-0.273l-0.273,0.033
					c-6.073,0.828-7.862,4.225-8.376,6.47c-0.257-2.775-0.497-5.559-0.712-8.334c0.141,0.017,0.323,0.025,0.563,0.025
					c1.955,0,6.727-0.762,8.26-7.961l0.058-0.265l-0.273,0.017c-6.18,0.456-8.152,3.803-8.782,6.006
					c-0.19-2.659-0.373-5.31-0.514-7.92c0.174,0.025,0.472,0.058,0.878,0.058c2.079,0,6.603-0.829,8.276-7.738l0.058-0.265
					l-0.273,0.008c-6.52,0.307-8.458,3.935-9.038,6.106c-0.149-2.924-0.265-5.783-0.331-8.566c0.191,0.025,0.447,0.041,0.762,0.041
					c2.071,0,6.595-0.828,8.268-7.729l0.066-0.273l-0.282,0.017c-5.965,0.273-8.094,3.339-8.856,5.517
					c-0.042-2.974-0.033-5.832,0.05-8.533c0.348,0.083,1.003,0.216,1.839,0.216c2.311,0,5.965-0.994,8.16-6.628l0.108-0.257
					l-0.282-0.025c-6.462-0.563-8.881,2.717-9.759,4.797c0.124-2.784,0.315-5.368,0.605-7.721c0.779-0.48,5.981-4.051,2.112-11.805
					l-0.116-0.249L424,247.253c-6.396,5.915-2.726,11.126-2.195,11.805c-0.29,2.344-0.489,4.921-0.605,7.688
					c-0.704-2.154-2.825-5.584-9.22-5.642h-0.282l0.083,0.265c1.839,6.536,6.073,7.431,8.251,7.431c0.48,0,0.862-0.05,1.094-0.083
					c-0.091,2.982-0.099,6.164-0.033,9.478c-0.828-1.997-3.281-5.642-10.082-4.78l-0.273,0.033l0.108,0.257
					c2.303,5.319,5.791,6.329,8.102,6.329C419.965,280.035,420.76,279.836,421.125,279.729z M421.026,279.323
					c-1.027,0.34-6.421,1.707-9.685-5.526C419.137,272.927,420.785,278.304,421.026,279.323z M421.117,268.304
					c-1.061,0.199-6.586,0.837-8.865-6.777C420.197,261.726,421.034,267.227,421.117,268.304z M422.069,258.727
					c-0.663-0.853-3.745-5.493,2.005-10.977C427.512,254.917,422.981,258.164,422.069,258.727z M421.564,268.321
					c0.199-1.052,1.566-6.454,9.486-5.882C428.042,269.796,422.6,268.627,421.564,268.321z M422.036,289.695
					c0.041-1.085,0.679-6.611,8.608-7.1C428.672,290.192,423.072,289.827,422.036,289.695z M431.514,302.519
					c-1.301,7.837-6.868,7.903-7.937,7.837C423.527,309.288,423.66,303.712,431.514,302.519z M428.813,353.353
					c0.025-1.69,0.746-6.329,7.812-7.531c-1.143,7.746-6.569,8.011-7.746,7.978C428.863,353.651,428.838,353.502,428.813,353.353z
					 M428.382,353.883c-0.978,0.447-6.205,2.386-10.231-4.465C425.922,347.711,428.042,352.864,428.382,353.883z M427.264,342.326
					c0.041-1.632,0.795-6.362,7.978-7.423c-1.317,7.729-6.752,7.87-7.928,7.804C427.297,342.583,427.28,342.45,427.264,342.326z
					 M426.816,342.782c-0.986,0.423-6.246,2.253-10.124-4.689C424.488,336.56,426.502,341.754,426.816,342.782z M433.883,323.57
					c-1.342,7.837-6.909,7.879-7.986,7.804C425.855,330.297,426.021,324.73,433.883,323.57z M425.433,331.374
					c0,0.033,0.008,0.058,0.008,0.083c-1.019,0.431-6.255,2.212-10.115-4.697C422.981,325.26,425.06,330.223,425.433,331.374z
					 M424.53,320.091c0.133-1.723,1.152-6.238,8.193-7.058c-1.524,7.547-6.934,7.63-8.135,7.556
					C424.571,320.422,424.555,320.256,424.53,320.091z M424.066,320.654c-0.994,0.389-6.313,2.055-9.975-4.996
					C421.929,314.358,423.784,319.61,424.066,320.654z M423.122,310.414c0,0.008,0,0.017,0.008,0.025
					c-1.002,0.431-6.246,2.262-10.148-4.639C420.727,304.234,422.782,309.346,423.122,310.414z M422.608,299.669
					c0.042-1.292,0.721-6.528,8.401-7.216c-1.773,7.713-7.299,7.464-8.392,7.332C422.608,299.752,422.608,299.711,422.608,299.669z
					 M422.152,299.835c-1.011,0.364-6.371,1.897-9.842-5.252C420.181,293.497,421.895,298.791,422.152,299.835z M421.523,279.289
					c0-0.141,0-0.282-0.008-0.431c0.199-1.657,1.392-6.23,8.574-6.677C428.125,279.778,422.691,279.455,421.523,279.289z
					 M421.514,289.446c0,0.108,0.008,0.207,0.016,0.307c-1.143,0.365-6.42,1.574-9.643-5.542
					C419.236,283.399,421.1,287.963,421.514,289.446z"/>
				<rect x="390.58" y="355.94" style="fill:#FFFFFF;" width="60.68" height="77.05"/>
				<rect x="431.13" y="357.484" style="fill:#D3D0DB;" width="18.386" height="75.506"/>
				<polygon style="fill:#D3D0DB;" points="428.29,412.806 428.29,357.581 422.355,357.581 				"/>
			</g>
			<g>
				<g>
					<path style="fill:#FFFFFF;" d="M91.232,319.671v8.077H64.187v-8.077H91.232 M92.032,318.871H63.387v9.677h28.645V318.871
						L92.032,318.871z"/>
				</g>
				<g>
					<path style="fill:#FFFFFF;" d="M111.748,338.639v8.077H84.703v-8.077H111.748 M112.548,337.839H83.903v9.677h28.645V337.839
						L112.548,337.839z"/>
				</g>
				<rect x="130.355" y="337.839" style="fill:#FFFFFF;" width="28.645" height="9.677"/>
				<g>
					<path style="fill:#FFFFFF;" d="M111.748,354.123v8.077H84.703v-8.077H111.748 M112.548,353.323H83.903V363h28.645V353.323
						L112.548,353.323z"/>
				</g>
				<g>
					<path style="fill:#FFFFFF;" d="M344.323,120v7.677h-26.645V120H344.323 M345.323,119h-28.645v9.677h28.645V119L345.323,119z"/>
				</g>
				<g>
					<path style="fill:#FFFFFF;" d="M334,176.258v7.677h-26.645v-7.677H334 M335,175.258h-28.645v9.677H335V175.258L335,175.258z"/>
				</g>
				<g>
					<path style="fill:#FFFFFF;" d="M376,350.387v7.677h-26.645v-7.677H376 M377,349.387h-28.645v9.677H377V349.387L377,349.387z"/>
				</g>
				<g>
					<path style="fill:#FFFFFF;" d="M376,366.065v7.677h-26.645v-7.677H376 M377,365.065h-28.645v9.677H377V365.065L377,365.065z"/>
				</g>
				<g>
					<rect x="316.677" y="133.193" style="fill:#FFFFFF;" width="28.645" height="9.677"/>
				</g>
				<g>
					<rect x="393.581" y="250.871" style="fill:#FFFFFF;" width="28.645" height="9.677"/>
				</g>
				<g>
					<g>
						<path style="fill:#FFFFFF;" d="M308.452,88.258v7.677h-26.645v-7.677H308.452 M309.452,87.258h-28.645v9.677h28.645V87.258
							L309.452,87.258z"/>
					</g>
				</g>
			</g>
			<g>
				<rect x="134.037" y="184.113" style="fill:#FFFFFF;" width="54.494" height="94.484"/>
				<rect x="134.037" y="77.889" style="fill:#FFFFFF;" width="54.494" height="94.484"/>
				<rect x="67.804" y="77.889" style="fill:#FFFFFF;" width="54.494" height="94.484"/>
				<rect x="67.804" y="184.113" style="fill:#FFFFFF;" width="54.494" height="94.484"/>
			</g>
			<g>
				<rect x="359.777" y="93.839" style="fill:#FFFFFF;" width="85.803" height="142.968"/>
				<path style="fill:#D3D0DB;" d="M418.811,217.735c-1.416-1.54-3.447-2.219-5.66-2.05c-1.109,0.085-2.132,0.365-3.134,0.795
					c-0.408,0.175-1.016,0.614-1.475,0.624c-0.68,0.015-0.425-0.143-0.812-0.702c-1.116-1.61-3.454-1.636-5.149-0.834
					c-0.948,0.449-1.756,1.386-2.796,1.652c-1.05,0.269-1.934-0.438-2.12-1.343c-0.147-0.711-1.249-1.111-1.9-0.7
					c-1.015,0.64-2.029,1.28-3.044,1.919c-0.418,0.264-0.858,0.6-1.304,0.824c-0.506,0.255-0.649,0.457-0.882-0.01
					c-0.293-0.587-0.062-1.368-0.4-2.005c-0.283-0.533-0.707-0.979-1.339-1.181c-1.563-0.499-3.032,1.072-4.104,1.851
					c-0.454,0.33-0.907,0.661-1.362,0.99c-0.459,0.332-0.825,0.924-1.44,0.356c-0.257-0.238-0.292-0.865-0.429-1.193
					c-0.164-0.39-0.36-0.653-0.655-0.967c-0.347-0.369-0.99-0.215-1.246,0.146c-0.501,0.706-1.853,1.284-2.574,1.792
					c-0.81,0.571-1.645,1.156-2.328,1.852c-0.259,0.264,0.079,0.733,0.439,0.515c0.84-0.508,1.605-1.109,2.433-1.635
					c0.567-0.36,1.44-1.047,2.218-1.322c0.485,1.386,0.763,3.347,2.898,3.035c1.042-0.152,1.964-1.054,2.77-1.607
					c0.53-0.364,1.061-0.727,1.59-1.092c0.247-0.17,0.515-0.427,0.792-0.55c0.36-0.16,0.091-0.247,0.289-0.058
					c0.223,0.212,0.096,0.945,0.124,1.224c0.039,0.385,0.101,0.764,0.269,1.122c0.339,0.72,1.022,1.238,1.898,1.32
					c1.117,0.104,2.064-0.513,2.947-1.044c0.795-0.478,1.588-0.958,2.382-1.437c0.693,1.144,1.948,1.959,3.516,1.99
					c1.258,0.025,2.356-0.501,3.35-1.152c0.605-0.396,2.029-1.55,2.715-0.905c0.339,0.319,0.425,0.858,0.803,1.199
					c0.383,0.346,0.857,0.574,1.384,0.677c1.153,0.224,2.333-0.23,3.346-0.681c2.416-1.076,4.702-1.136,7.249-0.26
					C418.852,219.16,419.245,218.207,418.811,217.735z"/>
				<path style="fill:#D3D0DB;" d="M418.622,198.163c-2.43,0.444-5.12,0.702-7.601,0.707c-1.355,0.003-2.532-0.057-3.68-0.759
					c-0.861-0.526-1.61-1.027-2.661-1.193c-2.29-0.362-4.247,0.873-6.199,1.734c-0.784,0.346-1.778,0.723-2.668,0.655
					c-1.109-0.085-1.413-0.968-2.017-1.672c-1.227-1.43-3.239-1.631-4.97-0.847c-1.043,0.472-1.794,1.24-2.561,2.012
					c-0.627,0.631-1.323,1.465-2.327,1.568c-0.992,0.102-1.061-0.591-1.492-1.193c-0.469-0.654-1.16-0.99-2.023-0.87
					c-0.892,0.124-1.418,0.7-1.966,1.307c-0.763,0.846-1.608,1.685-2.23,2.622c-0.514,0.774,0.621,1.468,1.32,0.923
					c0.942-0.734,1.621-1.983,2.643-2.598c0.134-0.08,0.202-0.145,0.238-0.194c0.01,0.04,0.03,0.088,0.081,0.156
					c0.232,0.314,0.296,0.711,0.555,1.03c0.967,1.188,2.779,1.379,4.243,0.93c2.117-0.649,2.948-2.931,4.961-3.571
					c1.257-0.4,1.533,0.539,2.147,1.291c0.55,0.674,1.257,1.182,2.15,1.431c1.799,0.501,3.706-0.066,5.304-0.832
					c0.999-0.479,1.94-1.102,3.031-1.407c1.439-0.402,2.185,0.162,3.333,0.834c1.833,1.073,4.18,1.005,6.278,0.862
					c2.47-0.169,4.449-0.782,6.652-1.77C419.906,198.986,419.359,198.029,418.622,198.163z"/>
				<path style="fill:#D3D0DB;" d="M418.311,180.787c-0.953,0.036-1.895,0.362-2.834,0.531c-1.046,0.188-2.069,0.413-3.125,0.556
					c-2.073,0.281-4.147,0.381-6.239,0.231c-1.927-0.138-3.854-0.492-5.713-0.971c-2.082-0.536-3.777-1.561-5.735-2.324
					c-1.981-0.771-3.924-0.235-5.777,0.563c-1.039,0.447-3.2,1.643-4.276,0.611c-0.519-0.498-0.656-1.167-1.378-1.53
					c-0.68-0.342-1.48-0.242-2.136,0.107c-0.902,0.481-1.673,1.312-2.438,1.948c-0.791,0.657-1.632,1.291-2.234,2.1
					c-0.485,0.653,0.435,1.283,1.097,0.994c0.822-0.358,1.526-0.936,2.237-1.454c0.537-0.391,1.278-1.136,1.997-1.546
					c0.158,0.347,0.289,0.828,0.42,1.019c0.401,0.585,1.021,1.026,1.713,1.291c1.335,0.512,2.942,0.359,4.283-0.055
					c1.669-0.515,3.402-1.927,5.223-1.275c1.65,0.591,3.185,1.456,4.859,2.035c3.356,1.16,6.962,1.595,10.543,1.384
					c1.764-0.104,3.551-0.316,5.245-0.785c1.59-0.44,3.674-1.049,4.855-2.152C419.376,181.619,419.047,180.759,418.311,180.787z"/>
				<path style="fill:#D3D0DB;" d="M418.216,164.539c-1.096-0.281-2.254-0.051-3.379,0.005c-1.211,0.061-2.422,0.114-3.634,0.179
					c-2.417,0.129-4.835,0.225-7.255,0.119c-2.476-0.108-4.796-0.571-7.196-1.085c-2.027-0.434-3.828-0.418-5.758,0.331
					c-2.668,1.035-6.787,4.369-9.324,1.416c-0.951-1.107-2.156-1.936-3.624-0.949c-1.804,1.213-3.519,3.036-4.953,4.592
					c-0.483,0.525,0.166,1.508,0.878,1.031c0.883-0.591,1.705-1.219,2.528-1.876c0.448-0.358,0.898-0.715,1.345-1.075
					c0.224-0.18,1.066-1.094,1.329-1.089c0.204,0.004,0.223,0.113,0.419,0.466c0.214,0.386,0.386,0.753,0.673,1.101
					c0.412,0.5,0.911,0.871,1.538,1.128c3.56,1.462,6.833-0.846,9.883-2.176c0.856-0.373,1.787-0.671,2.751-0.611
					c1.155,0.071,2.365,0.546,3.504,0.753c2.228,0.405,4.511,0.608,6.78,0.685c2.335,0.079,4.674,0.01,7.001-0.174
					c1.167-0.092,2.309-0.244,3.468-0.396c1.113-0.146,2.272-0.154,3.275-0.64C419.275,165.881,419.058,164.755,418.216,164.539z"/>
				<path style="fill:#D3D0DB;" d="M413.872,148.855c-0.891-0.085-1.712,0.204-2.577,0.382c-0.928,0.191-1.847,0.367-2.772,0.572
					c-1.858,0.412-3.743,0.73-5.66,0.784c-1.898,0.053-3.641-0.246-5.469-0.664c-1.574-0.36-3.119-0.541-4.725-0.253
					c-1.589,0.285-3.037,0.985-4.582,1.401c-1.764,0.475-3.442,0.158-5.233,0.036c-2.431-0.166-5.483-0.031-6.638,2.289
					c-0.358,0.719,0.691,1.308,1.184,0.627c1.937-2.678,6.14-0.486,8.818-0.467c3.045,0.022,5.838-2.061,8.87-1.543
					c1.548,0.265,3.001,0.804,4.572,1.005c1.736,0.222,3.48,0.223,5.222,0.051c1.66-0.164,3.302-0.45,4.923-0.813
					c1.564-0.35,3.576-0.803,4.826-1.747C415.425,149.916,414.695,148.934,413.872,148.855z"/>
				<path style="fill:#D3D0DB;" d="M413.872,116.399c-0.891-0.085-1.712,0.204-2.577,0.382c-0.928,0.191-1.847,0.367-2.772,0.572
					c-1.858,0.412-3.743,0.73-5.66,0.784c-1.898,0.053-3.641-0.246-5.469-0.663c-1.574-0.36-3.119-0.541-4.725-0.253
					c-1.589,0.285-3.037,0.985-4.582,1.401c-1.764,0.475-3.442,0.158-5.233,0.036c-2.431-0.166-5.483-0.031-6.638,2.288
					c-0.358,0.719,0.691,1.308,1.184,0.627c1.937-2.678,6.14-0.486,8.818-0.467c3.045,0.022,5.838-2.061,8.87-1.543
					c1.548,0.265,3.001,0.804,4.572,1.005c1.736,0.222,3.48,0.223,5.222,0.051c1.66-0.164,3.302-0.45,4.923-0.813
					c1.564-0.35,3.576-0.803,4.826-1.747C415.425,117.46,414.695,116.478,413.872,116.399z"/>
			</g>
			<g>
				<g>
					<path style="fill:#00A3BD;" d="M201.97,256.16l-15.74,23.74l-0.75-0.23l-3.91-1.18l-18.26-5.51l-1.86-0.56
						c4.96-25.42,14.7-50.69,23.12-69.47c8.28-18.41,15.27-30.6,15.27-30.6l0.72,28.39l0.11,4.45v0.01l0.35,13.48l0.26,10.41
						l0.12,4.62l0.53,20.71L201.97,256.16z"/>
					<path style="fill:#FFFFFF;" d="M180.29,233.968c0,0.713-0.578,1.29-1.29,1.29s-1.29-0.578-1.29-1.29
						c0-0.713,0.578-1.29,1.29-1.29S180.29,233.255,180.29,233.968z"/>
					<path style="fill:#FFFFFF;" d="M180.29,228.613c0,0.321-0.26,0.581-0.581,0.581s-0.581-0.26-0.581-0.581
						s0.26-0.581,0.581-0.581S180.29,228.292,180.29,228.613z"/>
					<polygon style="fill:#007487;" points="201.93,254.42 185.48,279.67 181.57,278.49 201.4,233.71 					"/>
					<polygon style="fill:#007487;" points="200.67,205.19 200.67,205.2 186.48,225.19 200.56,200.74 					"/>
					<polygon style="fill:#007487;" points="201.28,229.09 185.71,262.1 201.02,218.68 					"/>
					<path style="fill:#FFFFFF;" d="M184.57,202.95c-10.74,28.24-19.54,63.06-21.26,70.03l-1.86-0.56
						C166.41,247,176.15,221.73,184.57,202.95z"/>
				</g>
				<g>
					<path style="fill:#00A3BD;" d="M337.193,275.516c0,0-8.258-79.742-22.581-103.742l-15.097,91.355l4.144,10.831l14.695,0.266
						L337.193,275.516z"/>
					<polygon style="fill:#FFFFFF;" points="309.323,267.129 304.29,252.677 307.645,259.645 					"/>
					<polygon style="fill:#007487;" points="308.419,212.032 318.484,256.161 306.484,214.161 					"/>
					<polygon style="fill:#007487;" points="308.613,199.839 317.129,216.871 309.581,197.323 					"/>
					<path style="fill:#93D8E3;" d="M337.97,300.03l-1.5-0.95l-27.06-17.09l-3.89-1.15c-4.39-1.04-1.86-6.88-1.86-6.88
						s13.4-4.38,24.17-3.86c0.37,0.02,0.73,0.04,1.09,0.07c10.21,0.65,17.6,3.74,18.6,9.48
						C348.55,285.58,337.97,300.03,337.97,300.03z"/>
					<path style="fill:#FFFFFF;" d="M305.52,280.84c-4.39-1.04-1.86-6.88-1.86-6.88s13.4-4.38,24.17-3.86
						c0.37,0.02,0.73,0.04,1.09,0.07c-11.27,0.9-23.6,4.06-23.6,4.06s-0.64,0.51-0.9,1.93
						C304.16,277.58,305.52,280.84,305.52,280.84z"/>
					<path style="fill:#FFFFFF;" d="M308.71,275.71c0,0,12.194-3.194,23.71-2.226C332.419,273.484,320.903,271.065,308.71,275.71z"
						/>
					<path style="fill:#00A3BD;" d="M323.129,279.387c-0.4,0.08,12.516-1.504,16.387,2.603c3.871,4.107,4,5.526,4,5.526
						S345.71,274.871,323.129,279.387z"/>
					<path style="fill:#00A3BD;" d="M336.47,299.08l-27.06-17.09c6.43,0.07,21.55,0.38,25.98,1.78
						C340.82,285.5,344.13,291.97,336.47,299.08z"/>
				</g>
				<g>
					<path style="fill:#00A3BD;" d="M308.24,377.23c2.78,20.94,5.02,37.64,5.02,37.64l-5.06-0.06l-21.22-0.25l-106.5-1.24
						l11.27-69.62l9.25-57.15c0,0-0.24-4.9-0.58-11.97c-0.24-5.21-0.53-11.6-0.83-18.09c-0.66-14.48-1.3-29.46-1.3-32.84
						c0-6.97,0.77-50.13,1.55-51.3c0.23-0.35,4.74-2.09,10.91-4.35c2.25-0.82,4.73-1.72,7.31-2.63c0.29-0.11,0.59-0.22,0.88-0.32
						c0.24-0.09,0.48-0.17,0.72-0.26c13.22-4.7,28.18-9.85,28.18-9.85l15.48,0.77c0,0,13.43,4.08,26.55,8.13
						c2.44,0.76,4.87,1.51,7.2,2.24c9.53,2.96,17.39,5.46,17.54,5.69c0.27,0.41-8.3,59.71-13.39,95.81
						c-0.84,5.96-1.58,11.28-2.18,15.6c-0.9,6.64-1.46,10.91-1.46,11.5c0,1.84,4.92,39.31,9.24,71.93
						C307.3,370.23,307.78,373.78,308.24,377.23z"/>
					<path style="fill:#EAADA9;" d="M244.355,159.129L261,159.71l-10.742,13.805c0,0-3.065-4.45-3.774-6.321
						C245.774,165.323,244.355,159.129,244.355,159.129z"/>
					<path style="fill:#007487;" d="M295.839,247.839c0,0-1.935-36-1.935-43.936c0-6.761,3.51-30.506,4.55-37.393
						c-0.458-0.143-0.917-0.285-1.383-0.43c-0.638-0.2-1.297-0.404-1.948-0.607c-2.335,8.501-7.63,28.494-8.381,37.656
						c-0.968,11.807-1.161,24,1.355,31.936C290.613,243,295.839,247.839,295.839,247.839z"/>
					<path style="fill:#007487;" d="M301.064,266.613c0,0-2.71-26.323-3.097-35.419c-0.387-9.097,0.387-24.193,0.387-24.193
						s-3.484,24.968-2.129,46.258C296.226,253.258,297.968,263.71,301.064,266.613z"/>
					<path style="fill:#007487;" d="M219.9,204.29l-4.64,0.39l2.8-39.31c0.29-0.11,0.59-0.22,0.88-0.32
						c0.24-0.09,0.48-0.17,0.72-0.26L219.9,204.29z"/>
					<path style="fill:#007487;" d="M244.29,210.484c0,0,1.419-24.258,3.484-35.097c0,0-2.194,29.419-1.807,36.387L244.29,210.484z"
						/>
					<polygon style="fill:#007487;" points="247.903,211.903 249.968,175.516 248.936,212.032 					"/>
					<polygon style="fill:#007487;" points="237.977,152.29 232.452,164.419 242.237,158.355 					"/>
					<path style="fill:#007487;" d="M241.84,159.387l-7.066,6.677c0,0,7.258,5.61,15.484,7.45
						C250.258,173.514,243.003,163.839,241.84,159.387z"/>
					<path style="fill:#93D8E3;" d="M250.26,173.51c0,0-10.04-9.94-12.28-21.22l1.36-1.09l6.43-5.16c0,0-1.2,4.93-0.63,11.59
						c0.12,1.53,0.34,3.17,0.7,4.85C246.57,165.92,248.39,170.31,250.26,173.51z"/>
					<path style="fill:#00A3BD;" d="M245.14,157.63l-0.19,0.46c0,0-3.71-3.03-5.61-6.89l6.43-5.16
						C245.77,146.04,244.57,150.97,245.14,157.63z"/>
					<path style="fill:#352131;" d="M306.07,383.39c-0.04,0.42-0.04,1.24,0,2.37c0.01,0.27,0.02,0.56,0.03,0.86
						c0.04,0.8,0.08,1.71,0.14,2.71c0.05,0.79,0.1,1.62,0.16,2.51c0.12,1.81,0.26,3.81,0.41,5.87c0.03,0.43,0.07,0.86,0.1,1.3
						c0.06,0.84,0.13,1.7,0.2,2.55c0.09,1.13,0.18,2.27,0.27,3.38c0.12,1.53,0.24,3.02,0.36,4.44c0.04,0.43,0.07,0.86,0.1,1.27
						c0.05,0.54,0.1,1.06,0.14,1.57c0.05,0.62,0.1,1.21,0.15,1.77c0.02,0.28,0.05,0.55,0.07,0.82l-21.22-0.25l-84.81-0.99
						l-3.89-0.04l-17.8-0.21l11.27-69.62l9.25-57.15c0,0-0.24-4.9-0.58-11.97c-0.24-5.21-0.53-11.6-0.83-18.09l6.51-52.2
						c0,0,1-23.57,4.65-36.29c0.16-0.57,0.33-1.12,0.51-1.65c0.26-0.77,7.74-3.09,7.74-3.09l-0.06,1.79l-1.23,37.18
						c0,0,24.77,2.58,32.26,2.32c7.48-0.26,33.03-2.32,33.03-2.32l6.87-38.39l0.1-0.58l7.22,1.8l-0.12,1.02L292.55,203
						c0,0,0.83,44,8.67,64.58l1.71,14.41c0,0-1.89-0.21-3.89,1.19c-1.58,1.12-3.24,3.27-4.08,7.35c-0.21,1.02-0.36,2.52-0.45,4.4
						c0,0.13-0.01,0.27-0.01,0.4c-0.03,0.62-0.05,1.28-0.06,1.98c0,0.23-0.01,0.47-0.01,0.71c-0.03,2.56,0.02,5.57,0.15,8.88
						c0.02,0.55,0.05,1.11,0.07,1.68c0.11,2.16,0.24,4.44,0.41,6.8c0.03,0.58,0.08,1.16,0.12,1.75c0.1,1.28,0.21,2.58,0.32,3.89
						c0.06,0.63,0.11,1.26,0.17,1.9c0.06,0.54,0.11,1.07,0.16,1.61c0.07,0.66,0.13,1.33,0.21,1.99c0.01,0.09,0.02,0.19,0.02,0.27
						c0.08,0.69,0.15,1.39,0.23,2.08c0.01,0.11,0.03,0.21,0.04,0.31c0.07,0.64,0.14,1.29,0.22,1.93c0.03,0.19,0.05,0.39,0.08,0.58
						c0.12,1.04,0.25,2.08,0.39,3.12c0.02,0.11,0.03,0.22,0.04,0.32c0.1,0.68,0.19,1.36,0.29,2.04c0.07,0.51,0.14,1.01,0.22,1.51
						c0.11,0.73,0.22,1.45,0.33,2.17c0.18,1.17,0.37,2.32,0.57,3.46c0.07,0.38,0.13,0.76,0.2,1.14c0.2,1.13,0.41,2.25,0.63,3.35
						c0.14,0.74,0.29,1.46,0.44,2.18c0.09,0.42,0.18,0.84,0.27,1.26c0.14,0.64,0.29,1.27,0.43,1.9c0.25,1.03,0.49,2.03,0.75,3.01
						c0.17,0.65,0.34,1.29,0.52,1.92c0.17,0.63,0.35,1.24,0.54,1.84c0.18,0.6,0.37,1.18,0.56,1.75c0.47,1.42,0.97,2.74,1.48,3.95
						h4.32l0.71,8.78c0,0-0.48,0.73-1.08,1.84c-0.44,0.82-0.94,1.84-1.35,2.93c-0.09,0.23-0.17,0.46-0.25,0.7
						c-0.02,0.05-0.03,0.11-0.05,0.16c-0.07,0.23-0.14,0.47-0.2,0.7c-0.01,0.01-0.01,0.02-0.01,0.04c-0.08,0.27-0.14,0.55-0.19,0.82
						C306.14,382.85,306.1,383.12,306.07,383.39z"/>
					<polygon style="fill:#080000;" points="217.45,368.42 202.17,413.57 198.28,413.53 					"/>
					<path style="fill:#FFFFFF;" d="M204.032,369.581c0,0.927-0.751,1.677-1.677,1.677c-0.926,0-1.677-0.751-1.677-1.677
						c0-0.926,0.751-1.677,1.677-1.677C203.281,367.903,204.032,368.654,204.032,369.581z"/>
					<path style="fill:#080000;" d="M288.9,220.992v47.577l-12.61-3.226l12.61,7.689c0,0-4.481,11.387-5.126,14.484
						c0,0,4.639,8.839,10.659,13.663c-0.054-4.882,0.122-8.657,0.53-10.645c1.899-9.239,7.971-8.545,7.971-8.545l-1.713-14.409
						C291.465,259.974,288.9,220.992,288.9,220.992z"/>
					<path style="fill:#080000;" d="M306.07,383.39c-0.04,0.42-0.04,1.24,0,2.37c0.01,0.27,0.02,0.56,0.03,0.86
						c0.04,0.8,0.08,1.71,0.14,2.71c0.05,0.79,0.1,1.62,0.16,2.51c0.12,1.81,0.26,3.81,0.41,5.87c0.03,0.43,0.07,0.86,0.1,1.3
						c0.06,0.84,0.13,1.7,0.2,2.55c0.09,1.13,0.18,2.26,0.27,3.38c0.12,1.53,0.24,3.02,0.36,4.44c0.04,0.43,0.07,0.86,0.1,1.27
						c0.05,0.54,0.1,1.06,0.14,1.57c0.05,0.62,0.1,1.21,0.15,1.77c0.02,0.28,0.05,0.55,0.07,0.82l-21.22-0.25
						c1.8-10.58,5.19-28.33,5.19-28.33l-12.78,6.19l9.51-13.55l-9.51-65.81l-27.62-15.58h-27.1l-5.67,8.23l17.78-1.16v5.92
						l-29.77,13.43c0,0-2.33,19.36-5.04,22.84c-2.71,3.49-10.22,2.71-10.22,2.71v-5.75l9.25-57.15c0,0-0.24-4.9-0.58-11.97
						l51.35,2.16l42.74,18.19h0.01c-0.01,0.13-0.01,0.26-0.02,0.4c-0.02,0.62-0.04,1.28-0.06,1.98c0,0.23-0.01,0.47-0.01,0.71
						c-0.03,2.56,0.02,5.57,0.15,8.88c0.02,0.55,0.05,1.11,0.07,1.68c0.11,2.16,0.24,4.44,0.41,6.8c0.03,0.58,0.08,1.16,0.12,1.75
						c0.1,1.28,0.21,2.58,0.32,3.89c0.06,0.63,0.11,1.26,0.17,1.9c0.06,0.54,0.11,1.07,0.16,1.61c0.07,0.66,0.13,1.33,0.21,1.99
						c0.01,0.09,0.02,0.19,0.02,0.27c0.08,0.69,0.15,1.39,0.23,2.08c0.01,0.11,0.03,0.21,0.04,0.31c0.07,0.64,0.14,1.29,0.22,1.93
						c0.03,0.19,0.05,0.39,0.08,0.58c0.12,1.04,0.25,2.08,0.39,3.12c0.02,0.11,0.03,0.22,0.04,0.32c0.1,0.68,0.19,1.36,0.29,2.04
						c0.07,0.51,0.14,1.01,0.22,1.51c0.11,0.73,0.22,1.45,0.33,2.17c0.18,1.17,0.37,2.32,0.57,3.46c0.07,0.38,0.13,0.76,0.2,1.14
						c0.2,1.13,0.41,2.25,0.63,3.35c0.14,0.74,0.29,1.46,0.44,2.18c0.09,0.42,0.18,0.84,0.27,1.26c0.14,0.64,0.29,1.27,0.43,1.9
						c0.25,1.03,0.49,2.03,0.75,3.01c0.17,0.65,0.34,1.29,0.52,1.92c0.18,0.63,0.36,1.24,0.54,1.84s0.37,1.18,0.56,1.75
						c0.47,1.42,0.97,2.74,1.48,3.95h4.32l0.71,8.78c0,0-0.48,0.73-1.08,1.84c-0.44,0.82-0.94,1.84-1.35,2.93
						c-0.09,0.23-0.17,0.46-0.25,0.7c-0.02,0.05-0.03,0.11-0.05,0.16c-0.08,0.23-0.15,0.46-0.2,0.7c-0.01,0.01-0.01,0.02-0.01,0.04
						c-0.08,0.27-0.14,0.55-0.19,0.82C306.13,382.85,306.09,383.12,306.07,383.39z"/>
					<path style="fill:#EAADA9;" d="M272.55,156.55c0,0-17.16,5.16-26.71,5.93l-0.89-4.39l-0.79-3.86c0,0-1.45-3.2-1.16-5.17
						c0.29-1.96-1.16-7.48-1.16-7.48l28.64-4.9l0.6,5.77L272.55,156.55z"/>
					<path style="fill:#E1787F;" d="M271.08,142.45c-3.32,3.86-13.39,15.39-16.6,17.32c-2.34,1.41-6.03,0.74-9.53-1.68l-0.79-3.86
						c0,0-1.45-3.2-1.16-5.17c0.29-1.96-1.16-7.48-1.16-7.48l28.64-4.9L271.08,142.45z"/>
					<path style="fill:#080000;" d="M221.71,207.097c0,0,24.968,1.452,37.161,0.871c12.193-0.581,17.419-0.367,17.419-0.367
						s-11.226,1.335-20.71,1.915C246.097,210.097,221.71,207.097,221.71,207.097z"/>
					<path style="fill:#007487;" d="M260.032,152.29l-9.774,21.224l22.645-1.74c0,0,6.677-3.975,9.774-9.294L260.032,152.29z"/>
					<path style="fill:#93D8E3;" d="M260.032,152.29c0,0,3.484,13.29,13.29,17.419l10.452-7.741c0,0-10.129-12.259-12.613-16.646
						C271.161,145.323,267,149.968,260.032,152.29z"/>
					<path style="fill:#FFFFFF;" d="M230.613,181c0,0.535-0.433,0.968-0.968,0.968c-0.535,0-0.968-0.433-0.968-0.968
						s0.433-0.968,0.968-0.968C230.18,180.032,230.613,180.465,230.613,181z"/>
					<path style="fill:#FFFFFF;" d="M233.323,185.258c0,0.321-0.26,0.581-0.581,0.581c-0.321,0-0.581-0.26-0.581-0.581
						c0-0.321,0.26-0.581,0.581-0.581C233.063,184.677,233.323,184.937,233.323,185.258z"/>
					<path style="fill:#FFFFFF;" d="M217.71,232.613c0,0.535-0.433,0.968-0.968,0.968c-0.534,0-0.968-0.433-0.968-0.968
						s0.433-0.968,0.968-0.968C217.276,231.645,217.71,232.078,217.71,232.613z"/>
					<circle style="fill:#FFFFFF;" cx="224.484" cy="241.258" r="1.226"/>
					<path style="fill:#FFFFFF;" d="M227.129,238.032c0,0.392-0.318,0.71-0.71,0.71c-0.392,0-0.71-0.318-0.71-0.71
						c0-0.392,0.318-0.71,0.71-0.71C226.811,237.323,227.129,237.64,227.129,238.032z"/>
				</g>
				<g>
					<polygon style="fill:#330D0E;" points="227.516,95.323 226.936,107.129 228.29,106.161 229.839,121.645 231.193,93.774 					
						"/>
					<path style="fill:#EAADA9;" d="M274.871,130.742c0.903-2.193,4.903-21.677,4.903-21.677s3.301-9.085,2.323-13.161
						c-1.161-4.839-1.131-20.301-20.903-21.097c-33.677-1.355-32.516,21.871-32.516,21.871s0.968,9.29,0.774,12.194
						c-0.194,2.903,0.387,16.645,0.581,20.903c0.194,4.258,6.194,11.032,12.774,14.71c6.581,3.678,8.516,3.484,8.516,3.484
						l4.065-0.774c0,0,9.668-5.014,15.882-10.636C271.281,136.541,273.97,132.93,274.871,130.742z"/>
					<polygon style="fill:#5C171A;" points="233.323,93.581 231,99.774 229.839,97.968 228.548,102.097 228.032,93.839 					"/>
					<path style="fill:#5C171A;" d="M272.032,104.29l3.742,7.097l0.903,5.677c0,0-0.387,3.355-0.129,2.968
						c0.258-0.387,1.161-0.903,1.161-0.903l-2.014,8.645c0,0,3.304-3.613,4.207-5.936l0.516,1.29l1.859-9.936l1.496,2.968v-12.645
						c0,0-3.613-6.193-7.097-8c-3.484-1.806-7.871-1.161-7.871-1.161L272.032,104.29z"/>
					<path style="fill:#E1787F;" d="M273.839,106.355c0,0,2.71-4.903,5.936-1.548c3.226,3.355,0,10.968-6.452,13.935
						L273.839,106.355z"/>
					<path style="fill:#5C171A;" d="M265.064,95l3.226,5.29l0.645-2.064c0,0,1.936,2.452,2.194,4.645
						c0.258,2.193,0.387,5.161,0.516,7.871c0.129,2.71,0.516,4.516,0.387,6.194c-0.129,1.677-0.774,2.839-0.387,2.839
						c0.387,0,1.935,0.129,1.935,0.129s0.129-6.323,0.516-8.516c0.387-2.194,0.774-4,0.774-5.936s0-6.839,0-6.839
						s-6.581-4.516-6.968-4.774C267.516,93.581,265.064,95,265.064,95z"/>
					<g>
						<path style="fill:#DA9B7C;" d="M229.064,85.064c0,0,4.064-9.29,7.161-13.548c3.097-4.258,16.452-7.742,20.71-8.129
							c4.258-0.387,3.871,0.968,7.936,0.581c4.064-0.387,7.355,0,11.226,4.065c3.871,4.064,7.161,10.645,7.935,14.322
							c0.774,3.678,0.581,9.678,0.581,9.678L229.064,85.064z"/>
						<path style="fill:#A86049;" d="M257.903,64.548c0.774,0,4.645,0,4.452,0.968c-0.194,0.968-3.29,5.419-4.065,3.677
							C257.516,67.452,257.903,64.548,257.903,64.548z"/>
						<path style="fill:#A86049;" d="M264.097,87.193c0.774-0.774,3.677-3.484,5.419-8.903c1.742-5.419,0.581-11.806,3.29-11.032
							c2.71,0.774,7.742,9.29,9.484,12.193c1.742,2.903,2.129,8.129,1.548,10.452C283.258,92.226,264.097,87.193,264.097,87.193z"/>
						<path style="fill:#FFFFFF;" d="M236.226,76.258c0,0,1.161-4.355,4.161-6.194s7.839-2.903,7.839-2.903s-6.677,3-8.226,4.355
							C238.452,72.871,236.226,76.258,236.226,76.258z"/>
					</g>
					<g>
						<path style="fill:#DA9B7C;" d="M227.392,97.839c0,0,7.737-3.226,21.543-2.71c13.806,0.516,24.903,5.374,34.839,11.526
							c0,0,5.935-2.364,5.032-8.816c-0.903-6.452-4.973-8.846-9.069-11.705c-5.335-3.724-39.06-8.295-52.802-1.714
							c0,0-2.387,2.968-2.258,6.839C224.806,95.129,227.392,97.839,227.392,97.839z"/>
						<circle style="fill:#FFFFFF;" cx="229.984" cy="86.855" r="1.113"/>
						<path style="fill:#FFFFFF;" d="M233.516,89.468c0,0.294-0.238,0.532-0.532,0.532c-0.294,0-0.532-0.238-0.532-0.532
							c0-0.294,0.238-0.532,0.532-0.532C233.278,88.936,233.516,89.174,233.516,89.468z"/>
						<circle style="fill:#FFFFFF;" cx="241.016" cy="86.661" r="0.726"/>
						<path style="fill:#A86049;" d="M248.936,95.129c13.806,0.516,24.903,5.374,34.839,11.526c0,0,5.935-2.364,5.032-8.816
							c-0.073-0.519-0.173-1.003-0.285-1.471c-1.374-3.037-4.048-6.295-9.715-8.98c-7.355-3.484-19.935-3.097-20.516-2.903
							c0,0,8.71,1.935,12.581,3.484c3.871,1.548,2.322,3.871,0.193,6.774c-2.129,2.903-13.742-1.161-18.387-1.548
							c-3.322-0.277-9.315,1.228-12.461,2.108C242.775,95.098,245.68,95.007,248.936,95.129z"/>
					</g>
					<polygon style="fill:#E1787F;" points="249.71,113.839 247.774,120.807 251.258,120.936 					"/>
					<polygon style="fill:#5C171A;" points="271.161,121.645 272.903,121.742 272.903,122.71 					"/>
					<polygon style="fill:#5C171A;" points="271.452,123.581 272.806,123.581 272.613,124.742 					"/>
					<path style="fill:#5C171A;" d="M271.452,133.548c0,0-2.419,1.839-3.29,2.323c-0.871,0.484-0.871-1.064-0.871-1.064
						l-2.732,2.604c0,0-2.591-6.959-3.171-8.217c-0.581-1.258-3-3.968-3.484-4.452c-0.484-0.484-10.452-0.29-11.419,0
						c-0.968,0.29-5.419,1.161-6.194,2.032c-0.774,0.871-3.968,7.548-3.968,7.548l-0.968-1.161l-1.839-0.097l-1.742-4.308
						l-0.581,1.405l-1.268-2.81l-0.474,5.326l0.677-0.968c0,0,1.161,3.387,2.226,4.935c1.064,1.548,4.161,5.323,4.161,5.323
						l-0.774-2.226c0,0,2.226,2.323,2.807,3.194c0.581,0.871,4.742,4.161,4.742,4.161l-0.581-1.548c0,0,1.839,0.677,2.903,2.032
						c1.064,1.355,0.968,4.161,0.968,4.161l1.161-1.064l0.774-1.839l0.871,1.936l-0.871,2.903c0,0,1.258-1.161,1.839-1.548
						c0.581-0.387,1.839-2.226,1.839-2.226s0.387,0.774,0.29,1.548c-0.097,0.774-0.871,2.129-0.871,2.129s1.645-1.161,2.419-1.936
						c0.774-0.774,2.613-2.71,4.258-4.355s3.097-0.871,4.645-2.323s2.516-3,2.516-3l0.097,1.258c0,0,4.258-3.29,5.71-4.936
						s2.836-6.004,2.836-6.004L271.452,133.548z M260.71,139.355c-1.355,0.581-2.71,1.161-2.71,1.161l-0.581-1.548l-0.774,1.161
						l-0.968-3.581c0,0-5.258,0.387-9.645-0.323l-1.29,2.903l-0.323-1.097l-0.387,0.645l-1.419-0.71l-0.71-1.355
						c0,0-1.032,0.387-1.29,0.323c-0.258-0.064-2.161-1.452-2.161-1.452s2.71-5.419,3-6c0.29-0.581,1.161-1.064,1.548-1.258
						c0.387-0.194,1.645-0.387,1.645-0.387l-0.774,1.258c0,0,1.645-1.161,2.032-1.161s2.032-0.387,3.677-0.29
						c1.645,0.097,3.387,0.774,3.387,0.774l0.097-0.871c0,0,1.258-0.484,2.613,0c1.355,0.484,2.129,1.161,2.129,1.161v-0.774
						c0,0,0.968,0.677,1.645,1.742s2.613,8.032,2.613,8.032S262.064,138.774,260.71,139.355z"/>
					<path style="fill:#330D0E;" d="M252.193,149.903c0,0,0.387,0.774,0.29,1.548c-0.097,0.774-0.871,2.129-0.871,2.129
						s1.645-1.161,2.419-1.936c0.774-0.774,2.613-2.71,4.258-4.355s3.097-0.871,4.645-2.323s2.516-3,2.516-3l0.097,1.258
						c0,0,3.989-3.084,5.558-4.773l1.7-4.486l-5.097,5.613l-0.129-1.742l-5.226,5.226l0.194-1.936c0,0-1.097,0.387-2.839,1.871
						c-1.742,1.484-4.71,4.968-4.71,4.968l0.323-3.613l-1.484,2.258l-0.968-0.968c0,0-0.516,1.419-0.774,2.129
						c-0.258,0.71-0.774,1.936-1.484,3.097c-0.71,1.161-1.936,2.645-2.097,2.806c0,0,1.258-1.161,1.839-1.548
						C250.936,151.742,252.193,149.903,252.193,149.903z"/>
					<path style="fill:#DB2852;" d="M255.113,131.507c-0.006-0.007-0.013-0.014-0.019-0.02c-0.03-0.032-0.086-0.049-0.129-0.034
						c-0.021,0.007-0.194-0.001-0.24,0.005c-0.229,0.033-0.439,0.123-0.663,0.175c-0.445,0.103-0.892,0.137-1.34,0.205
						c-0.359,0.055-0.718,0.044-1.077,0.087c-0.438,0.052-0.918,0.062-1.36,0.069c-0.883,0.015-1.753-0.187-2.629-0.253
						c-0.764-0.058-1.717,0.058-2.415-0.338c-0.047-0.027-0.119-0.034-0.166,0c-0.018,0.013-0.035,0.025-0.053,0.038
						c-0.03,0.022-0.052,0.059-0.039,0.097c0.085,0.257,0.409,0.375,0.6,0.535c0.29,0.242,0.755,0.378,1.123,0.467
						c0.258,0.062,0.512,0.016,0.772,0.03c0.25,0.013,0.484,0.07,0.736,0.076c0.545,0.014,1.067,0.185,1.613,0.2
						c0.952,0.027,1.948-0.036,2.88-0.211c0.756-0.142,1.962-0.217,2.435-0.913C255.186,131.656,255.165,131.562,255.113,131.507z"
						/>
					<path style="fill:#330D0E;" d="M262.005,107.884c-0.535,0.08-0.978,0.555-1.482,0.744c-0.574,0.216-1.188,0.29-1.799,0.294
						c-0.63,0.005-1.265-0.051-1.874-0.222c-0.29-0.081-0.582-0.181-0.861-0.294c-0.29-0.117-0.563-0.361-0.886-0.351
						c-0.204,0.006-0.3,0.176-0.275,0.361c0.048,0.351,0.438,0.593,0.706,0.783c0.32,0.227,0.667,0.381,1.04,0.5
						c0.741,0.235,1.532,0.321,2.307,0.308c0.719-0.013,1.456-0.116,2.125-0.389c0.63-0.257,1.444-0.75,1.335-1.543
						C262.32,107.917,262.135,107.865,262.005,107.884z"/>
					<path style="fill:#330D0E;" d="M245.425,107.884c-0.535,0.08-0.978,0.555-1.482,0.744c-0.574,0.216-1.188,0.29-1.799,0.294
						c-0.63,0.005-1.265-0.051-1.874-0.222c-0.289-0.081-0.582-0.181-0.861-0.294c-0.29-0.117-0.563-0.361-0.886-0.351
						c-0.204,0.006-0.3,0.176-0.275,0.361c0.048,0.351,0.438,0.593,0.706,0.783c0.32,0.227,0.667,0.381,1.041,0.5
						c0.74,0.235,1.532,0.321,2.307,0.308c0.719-0.013,1.456-0.116,2.125-0.389c0.63-0.257,1.444-0.75,1.335-1.543
						C245.739,107.917,245.554,107.865,245.425,107.884z"/>
					<path style="fill:#330D0E;" d="M262.622,101.252c-0.521-0.454-1.248-0.574-1.911-0.655c-0.733-0.089-1.469-0.13-2.206-0.121
						c-0.707,0.008-1.414,0.06-2.115,0.154c-0.681,0.091-1.456,0.242-2.032,0.625c-0.277,0.184-0.144,0.647,0.176,0.685
						c0.673,0.079,1.404-0.073,2.076-0.153c0.656-0.078,1.316-0.121,1.977-0.123c0.654-0.002,1.309,0.027,1.96,0.093
						c0.667,0.068,1.349,0.183,2.005-0.012C262.773,101.68,262.771,101.381,262.622,101.252z"/>
					<path style="fill:#330D0E;" d="M238.081,101.27c0.519-0.457,1.246-0.579,1.908-0.663c0.732-0.092,1.468-0.136,2.206-0.131
						c0.707,0.005,1.414,0.053,2.115,0.145c0.681,0.088,1.457,0.236,2.035,0.616c0.278,0.183,0.146,0.647-0.173,0.686
						c-0.673,0.082-1.404-0.067-2.077-0.144c-0.656-0.075-1.317-0.115-1.977-0.114c-0.654,0.001-1.309,0.033-1.959,0.102
						c-0.667,0.071-1.348,0.189-2.005-0.003C237.932,101.699,237.933,101.4,238.081,101.27z"/>
				</g>
				<g>
					<g>
						<path style="fill:#C65E67;" d="M181.57,269.194c0,0,0.785,15.355,0.914,16.774c0.129,1.419-7.484,9.29-9.936,10.194
							c-2.452,0.903-5.807,0.258-5.807,0.258s-6.839-8.258-7.226-10.968s-0.129-17.29-0.129-17.29L181.57,269.194z"/>
						<path style="fill:#93D8E3;" d="M178.1,249.19l-6.97,14.35v0.01l-5.81,11.97c0,0-4.38,0.51-6.32-0.78
							c-0.97-0.64-2.81-3.32-4.42-6.14v-0.01c-1.61-2.83-3-5.79-3.06-7.01c-0.04-0.82,0.46-2.22,1.29-3.82
							c1.63-3.19,4.52-7.19,6.84-9.08c3.48-2.84,6.83-5.03,10.32-4.65c0.55,0.06,1.13,0.23,1.71,0.48
							C174.8,245.81,178.1,249.19,178.1,249.19z"/>
						<path style="fill:#FFFFFF;" d="M171.68,244.51c-2.74-0.21-5.24,0.69-8.81,2.75c-3.65,2.11-7.97,7.64-10.06,10.5
							c1.63-3.19,4.52-7.19,6.84-9.08c3.48-2.84,6.83-5.03,10.32-4.65C170.52,244.09,171.1,244.26,171.68,244.51z"/>
						<path style="fill:#00A3BD;" d="M171.13,263.54v0.01l-5.81,11.97c0,0-4.38,0.51-6.32-0.78c-0.97-0.64-2.81-3.32-4.42-6.14
							v-0.01l-1.87-6.24l2.81,2.62c0,0-1.55-4.16-0.78-6.1c0.78-1.93,6.78-9,10.94-9.77C169.33,248.42,170.82,260.57,171.13,263.54z
							"/>
					</g>
					<path style="fill:#D67C22;" d="M195.82,331.71l-2.9,1.55c-15.09-1.85-24.88-6.97-31.2-12.47
						c-9.58-8.33-11.19-17.53-11.19-17.53l1.36-4.65l0.45,0.34L195.82,331.71z"/>
					<path style="fill:#FF9B36;" d="M164.52,318.48c0,0-0.71,1.99-2.8,2.31c-9.58-8.33-11.19-17.53-11.19-17.53l1.36-4.65l0.45,0.34
						c1.09,3.08,3.49,9.38,5.79,12.18C161.23,314.9,164.52,318.48,164.52,318.48z"/>
					<path style="fill:#F5F5F5;" d="M190.983,267.45l-39.097,31.161c0,0,1.548,25.355,43.936,33.097l16.645-45.29
						C212.467,286.417,198.144,277.32,190.983,267.45z"/>
					<polygon style="fill:#AAA5BA;" points="183.054,308.604 196.603,286.72 195.129,283.887 					"/>
					<g>
						<path style="fill:#858585;" d="M185.76,291.849c0.273,0.046,0.538,0.179,0.744,0.401c0.461,0.495,0.473,1.257,0.03,1.766
							l-10.112,11.631c-0.205,0.235-0.473,0.38-0.755,0.43c-0.452,0.086-0.942-0.069-1.262-0.458l-0.006-0.007
							c-0.409-0.499-0.399-1.219,0.025-1.705l10.117-11.626C184.856,291.921,185.324,291.775,185.76,291.849z"/>
						<path style="fill:#FFFFFF;" d="M185.76,291.849c0.273,0.046,0.538,0.179,0.744,0.401c0.461,0.495,0.473,1.257,0.03,1.766
							l-10.112,11.631c-0.205,0.235-0.473,0.38-0.755,0.43c-0.297-0.052-0.582-0.207-0.794-0.464l-0.004-0.005
							c-0.409-0.499-0.401-1.221,0.023-1.707l10.118-11.624C185.214,292.044,185.48,291.901,185.76,291.849z"/>
						<path style="fill:#F05948;" d="M178.254,300.04l-0.182,0.209c0.604,0.712,1.2,1.366,1.539,1.731l0.18-0.207
							C179.446,301.4,178.852,300.747,178.254,300.04z M176.717,301.806l-0.182,0.208c0.61,0.718,1.209,1.374,1.54,1.731l0.18-0.208
							C177.917,303.173,177.32,302.518,176.717,301.806z M175.18,303.572l-0.182,0.208c0.615,0.724,1.218,1.382,1.542,1.731
							l0.18-0.207C176.39,304.947,175.789,304.29,175.18,303.572z M181.328,296.509l-0.182,0.209
							c0.593,0.701,1.183,1.351,1.535,1.731l0.181-0.208C182.504,297.854,181.914,297.204,181.328,296.509z M184.22,293.186
							c0.583,0.691,1.169,1.338,1.532,1.731l0.18-0.207c-0.368-0.399-0.952-1.044-1.531-1.732L184.22,293.186z M182.865,294.743
							l-0.182,0.209c0.587,0.695,1.176,1.344,1.533,1.731l0.18-0.208C184.034,296.082,183.447,295.434,182.865,294.743z
							 M179.791,298.275l-0.182,0.208c0.598,0.707,1.191,1.358,1.537,1.731l0.18-0.207
							C180.975,299.627,180.383,298.976,179.791,298.275z"/>
					</g>
					<polygon style="fill:#FFFFFF;" points="155.628,298.611 188.467,271.209 179.757,280.272 					"/>
					<path style="fill:#AAA5BA;" d="M165.177,316.933c0,0,12,2.194,20-5.032c8-7.226,18.029-27.61,18.029-27.61
						s-9.291-7.684-12.223-16.841h3.355l17.419,17.971l-16.153,45.062C195.604,330.482,175.112,327.901,165.177,316.933z"/>
					<path style="fill:#F5F5F5;" d="M215.66,284.2c0,0-2.62-0.56-7.06-2.7c-0.45-0.21-0.91-0.44-1.4-0.69
						c-5.28-2.71-12.74-14.03-13.61-17.61c0,0,6.12-1.75,10.31-0.49c2.26,0.68,5.33,2.54,7.76,4.93c2.09,2.03,3.72,4.46,4,6.88
						c0.08,0.68,0.14,1.35,0.18,2C216.11,280.84,215.66,284.2,215.66,284.2z"/>
					<path style="fill:#AAA5BA;" d="M215.66,284.2c0,0-2.62-0.56-7.06-2.7c-3.17-2.76-10.5-10.63-10.5-10.63l1.88-3.82
						c0,0,7.1-0.68,11.68,0.59c2.09,2.03,3.72,4.46,4,6.88c0.08,0.68,0.14,1.35,0.18,2C216.11,280.84,215.66,284.2,215.66,284.2z"/>
					<path style="fill:#D67C22;" d="M190.983,267.45c0,0-0.581-1.258,0.097-2.323c0.677-1.065,2.516-1.936,2.516-1.936
						s5.419,12,22.064,21c0,0-0.968,1.742-1.548,2.129c-0.581,0.387-1.829,0.596-1.829,0.596S197.66,278.966,190.983,267.45z"/>
					<path style="fill:#FF9B36;" d="M195,268.065c0,0,5.806,6.774,8.613,9.097c2.806,2.323,4.355,3.968,4.355,3.968l-1.355,1.065
						C206.613,282.194,195,273.677,195,268.065z"/>
					<g>
						<path style="fill:#EAADA9;" d="M180.548,247.645c0,0,7.226,8.774,9.161,10.194c1.936,1.419,4.645,5.032,4.258,6.452
							c-0.387,1.419-6.968-0.387-6.968-0.387l-7.097-3.355L180.548,247.645z"/>
						<path style="fill:#E1787F;" d="M190.29,262.806c-0.165-0.828-4.127-5.258-6.949-8.331l-0.863-4.521
							c-1.131-1.339-1.93-2.31-1.93-2.31l-0.645,12.903l7.097,3.355c0,0,1.431,0.391,2.997,0.666
							C190.294,263.996,190.397,263.338,190.29,262.806z"/>
						<polygon style="fill:#FF9B36;" points="190.07,268.17 183.11,273.73 177.71,264.57 153.87,274.58 152.52,272.11 
							151.52,270.27 179.43,258.9 181.34,258.12 183.05,257.42 187.13,263.67 						"/>
						<path style="fill:#D67C22;" d="M190.07,268.17l-6.96,5.56l-5.4-9.16l-23.84,10.01l-1.35-2.47L178.29,261
							c0,0,0.59-1.15,1.14-2.1c0.37-0.66,0.73-1.23,0.86-1.25c0.12-0.03,0.56,0.19,1.05,0.47c0.77,0.43,1.66,1.01,1.66,1.01
							s2.03,2.24,4.13,4.54L190.07,268.17z"/>
						<path style="fill:#EAADA9;" d="M182.61,272.94c0,0-4.77,2.45-6.71,3.48c-1.93,1.03-15.74-0.77-15.74-0.77
							s-0.38-0.78-0.91-2.09c0,0,0,0,0-0.01c-1.2-2.94-3.19-8.59-3.47-14.19c-0.01-0.03-0.01-0.07-0.01-0.1
							c0,0,11.23-11.87,13.55-12.65c0.07-0.02,0.15-0.05,0.23-0.06c2.63-0.6,11,1.1,11,1.1s0.51,13.29,0.77,15.48
							C181.58,265.32,182.61,272.94,182.61,272.94z"/>
						<path style="fill:#E1787F;" d="M182.61,272.94c0,0-4.77,2.45-6.71,3.48c-1.93,1.03-15.74-0.77-15.74-0.77
							s-0.38-0.78-0.91-2.09c0,0,0,0,0-0.01c-0.36-1.64-0.59-3.5,0.01-4.1c1.16-1.16,10.45-3.22,10.45-3.22l1.42,2.19l0.13-2.71
							c0,0,6.71-2.45,8-1.81C180.55,264.55,182.35,271.9,182.61,272.94z"/>
						<path style="fill:#FFFFFF;" d="M169.55,246.55v6.13l-1.36-3.58l-12.41,10.26c-0.01-0.03-0.01-0.07-0.01-0.1
							c0,0,11.23-11.87,13.55-12.65C169.39,246.59,169.47,246.56,169.55,246.55z"/>
						<circle style="fill:#FFFFFF;" cx="165.387" cy="258.097" r="0.677"/>
						<path style="fill:#EAADA9;" d="M183.129,265.452c0,0-0.581-2.194,1.484-3.742s6.645-0.903,7.29-0.645
							c0.645,0.258,1.592,1.296,1.592,1.296s0.418,0.865,0.51,2.474c0.092,1.609-1.65,1.908-1.65,1.908s-4.267,1.281-5.401,1.715
							C185.82,268.892,183.452,268.097,183.129,265.452z"/>
					</g>
					<path style="fill:#FFFFFF;" d="M184.75,283.257c0,0.571-0.463,1.034-1.034,1.034s-1.034-0.463-1.034-1.034
						s0.463-1.034,1.034-1.034S184.75,282.686,184.75,283.257z"/>
					<path style="fill:#FFFFFF;" d="M178.932,286.396c0,0.237-0.192,0.43-0.43,0.43c-0.237,0-0.43-0.192-0.43-0.43
						c0-0.237,0.192-0.43,0.43-0.43C178.739,285.966,178.932,286.158,178.932,286.396z"/>
					<circle style="fill:#FFFFFF;" cx="175.746" cy="291.101" r="0.748"/>
					<polygon style="fill:#F5F5F5;" points="199.387,304.548 226.742,303.903 225.71,306.871 194.484,309.065 					"/>
					<polygon style="fill:#AAA5BA;" points="226.742,303.903 230.323,304.161 230.516,307.161 225.71,306.871 					"/>
					<polygon style="fill:#847D93;" points="230.516,307.161 201.484,311.516 194.484,309.065 225.71,306.871 					"/>
				</g>
				<g>
					<path style="fill:#EAADA9;" d="M340.465,296.387c0,0-6.614,11.924-12.281,13.519c0,0-27.927-6.995-33.88-8.497
						c-5.942-1.502-37.057-19.322-37.057-19.322s-19.593,2.228-26.051,1.25c-6.468-0.988-8.807-3.289-11.897-3.264
						c-3.1,0.025-9.286,0.595-9.286,0.595s-7.056-6.944-9.26-9.876c-0.324-0.438-0.546-0.796-0.608-1.015
						c-0.021-0.05-0.031-0.09-0.031-0.13c-0.005-0.6-0.063-1.65-0.131-2.599c-0.089-1.089-0.166-2.039-0.166-2.039
						s21.663-2.245,22.693-2.253c1.03-0.008,16.772,0.125,21.166,0.609c1.742,0.186,15.826,3.093,32.354,6.609l0.12,0.029
						c25.034,5.348,55.629,12.102,57.497,13.017C336.749,284.546,340.465,296.387,340.465,296.387z"/>
					<path style="fill:#E1787F;" d="M216.06,278.939c-0.378,0.083,4.772-0.297,7.492,0.972c2.72,1.268,4.794,2.413,9.828,2.631
						c5.034,0.217,21.542-0.948,21.542-0.948s-11.496-1.456-14.723-1.559c-3.227-0.103-8.899,0.588-11.357-0.167
						C226.384,279.114,220.954,277.868,216.06,278.939z"/>
					<path style="fill:#E1787F;" d="M293.704,290.572c-11.374-2.36-35.038-8.621-35.038-8.621s23.173,13.71,33.073,18.511
						c1.076,0.459,1.96,0.791,2.568,0.944c5.247,1.324,27.591,6.926,32.784,8.228c0.647,0.041,1.081,0.011,1.218-0.114
						c1.281-1.172,4.974-7.266,4.193-8.163C331.721,300.46,305.079,292.932,293.704,290.572z"/>
					<polygon style="fill:#E1787F;" points="286.704,286.499 326.789,296.886 324.702,294.194 					"/>
					<path style="fill:#FFFFFF;" d="M276.03,269.975l-31.825-5.454c0,0-17.82-1.146-20.269-0.997
						c-2.449,0.14-22.955,1.985-22.955,1.985l-0.998,1.538c-0.089-1.089-0.166-2.039-0.166-2.039s21.663-2.245,22.693-2.253
						c1.03-0.008,16.772,0.125,21.166,0.609C245.417,263.552,259.501,266.458,276.03,269.975z"/>
					<path style="fill:#FFFFFF;" d="M295.288,278.882c0.005,0.606-0.482,1.101-1.088,1.106c-0.606,0.005-1.101-0.482-1.106-1.088
						c-0.005-0.606,0.482-1.101,1.088-1.105C294.788,277.789,295.283,278.276,295.288,278.882z"/>
					<path style="fill:#FFFFFF;" d="M298.791,281.305c0.003,0.392-0.312,0.712-0.704,0.715c-0.392,0.003-0.712-0.312-0.715-0.704
						c-0.003-0.392,0.312-0.712,0.704-0.715C298.468,280.598,298.788,280.913,298.791,281.305z"/>
					<path style="fill:#E1787F;" d="M208.112,269.262l-7.358,1.529c-0.324-0.438-0.546-0.796-0.608-1.015L208.112,269.262z"/>
				</g>
			</g>
		</g>
	</g>
	<g>
		<g>
			<path style="fill:#CDECF1;" d="M294.022,393.918c0.235,1.433-16.619,6.215-16.619,6.215l-2.632-6.808
				c0,0,10.997-2.274,11.244-3.954c0.235-1.668-6.821-17.806-7.661-17.806c-0.828,0-8.958,2.15-8.958,2.15l-0.148-0.358
				l-0.964-2.348l-1.285-3.151c0,0,12.789-5.153,15.063-4.078C284.334,364.868,293.787,392.485,294.022,393.918z"/>
			<circle style="fill:#FFFFFF;" cx="280.47" cy="367.055" r="0.797"/>
			<path style="fill:#FFFFFF;" d="M283.659,369.766c0,0.22-0.178,0.399-0.399,0.399s-0.399-0.178-0.399-0.399
				c0-0.22,0.178-0.399,0.399-0.399S283.659,369.546,283.659,369.766z"/>
			<circle style="fill:#FFFFFF;" cx="284.137" cy="376.143" r="0.478"/>
			<path style="fill:#8FCCE1;" d="M278.477,371.195l-9.23,2.162l-0.964-2.348c0.865-0.087,3.052-0.284,5.573-0.531
				C277.118,370.169,278.477,371.195,278.477,371.195z"/>
			<path style="fill:#8FCCE1;" d="M277.401,399.063c6.457-1.196,15.067-6.218,15.067-6.218s-1.555,0-5.142,1.315
				c-3.587,1.315-10.523,2.272-10.523,2.272L277.401,399.063z"/>
			<path style="fill:#8FCCE1;" d="M284.536,393.203c0.239-0.159,5.022-1.913,5.022-1.913l-0.478-2.87l-0.877,2.073L284.536,393.203z
				"/>
		</g>
		<g>
			<path style="fill:#CDECF1;" d="M229.211,358.286c0,0-18.654,60.985-18.654,62.42c0,1.435,1.674,3.587,5.501,5.74
				c3.826,2.152,44.244,5.261,63.855,1.435c0,0,5.262-4.783,5.501-7.414c0.239-2.631-19.85-61.942-19.85-61.942L229.211,358.286z"/>
			<path style="fill:#D4A681;" d="M264.008,359.357c0,0-4.127,6.635-8.118,12.431c-3.003,4.362-5.931,8.242-6.944,8.501
				c-2.397,0.593-5.029-1.075-6.697-2.99c-0.618-0.704-2.273-3.423-4.115-6.586c-3.163-5.437-6.895-12.183-6.895-12.183
				L264.008,359.357z"/>
			<path style="fill:#8FCCE1;" d="M284.217,419.989c0.286-2.999-15.93-51.409-19.314-61.468l-35.693-0.235
				c0,0-0.379,1.24-1.028,3.364c3.76,0.924,13.129,2.815,26.538,2.694c0,0,8.131,40.497,8.61,48.948
				c0.478,8.45-3.667,13.233-13.233,15.147c0,0,19.77,0.638,29.018-1.435C279.115,427.004,283.898,423.337,284.217,419.989z"/>
			<path style="fill:#F5A782;" d="M231.244,358.525c0,0,0.982,1.775,2.364,4.235c4.887,0.834,12.078,1.666,21.114,1.585
				c0,0,0.565,2.815,1.402,7.095c3.915-5.712,7.885-12.078,7.885-12.078L231.244,358.525z"/>
			<path style="fill:#CDECF1;" d="M265.443,400.258c0,3.302-2.677,5.979-5.979,5.979s-5.979-2.677-5.979-5.979
				c0-3.302,2.677-5.979,5.979-5.979S265.443,396.956,265.443,400.258z"/>
			<path style="fill:#CDECF1;" d="M264.845,385.132c0,1.09-0.883,1.973-1.973,1.973c-1.09,0-1.973-0.883-1.973-1.973
				s0.883-1.973,1.973-1.973C263.962,383.159,264.845,384.042,264.845,385.132z"/>
			<path style="fill:#CDECF1;" d="M261.138,376.283c0,0.495-0.401,0.897-0.897,0.897s-0.897-0.401-0.897-0.897
				s0.402-0.897,0.897-0.897S261.138,375.787,261.138,376.283z"/>
			<path style="fill:#D49964;" d="M215.977,413.292c0,0,0.797-1.116,5.262-1.116c4.464,0,9.726,1.913,15.465,1.913
				c5.74,0,12.915,1.594,19.93,1.276c7.015-0.319,8.769-0.16,14.031-0.319c5.261-0.16,11.161,0.957,11.161,0.957
				s-2.551,2.71-9.088,3.508c-6.537,0.797-34.917-0.478-40.816-0.638c-5.899-0.159-12.755-1.276-13.871-2.71
				C216.934,414.727,215.977,413.292,215.977,413.292z"/>
			<path style="fill:#733E2E;" d="M281.826,416.003c0,0-5.899-1.116-11.161-0.957c-3.046,0.092-4.92,0.078-7.315,0.111
				c-0.05,1.698-0.32,3.228-0.811,4.6c4.523,0.041,8.293-0.014,10.199-0.247C279.275,418.713,281.826,416.003,281.826,416.003z"/>
			<path style="fill:#733E2E;" d="M212.948,419.351l3.029-6.059c0,0,1.913,0.638,7.972,2.232c6.059,1.594,15.784,0,24.075,0.797
				c8.291,0.797,11.798,1.913,18.017,1.594c6.218-0.319,15.784-1.913,15.784-1.913s0.478,0.478,0.957,2.232
				c0.478,1.754-1.435,5.899-4.145,7.494c-2.711,1.594-25.51,1.754-34.598,1.435c-9.088-0.319-25.988-1.913-27.902-3.508
				C214.224,422.061,212.47,420.626,212.948,419.351z"/>
			<path style="fill:#B07F53;" d="M223.352,417.996c0,0.418-0.339,0.757-0.757,0.757c-0.418,0-0.757-0.339-0.757-0.757
				c0-0.418,0.339-0.757,0.757-0.757C223.012,417.238,223.352,417.578,223.352,417.996z"/>
			<circle style="fill:#B07F53;" cx="226.899" cy="422.141" r="1.076"/>
			<path style="fill:#B07F53;" d="M229.291,420.248c0,0.308-0.25,0.558-0.558,0.558s-0.558-0.25-0.558-0.558s0.25-0.558,0.558-0.558
				S229.291,419.94,229.291,420.248z"/>
			<path style="fill:#B07F53;" d="M236.665,419.51c0,0.286-0.232,0.518-0.518,0.518c-0.286,0-0.518-0.232-0.518-0.518
				c0-0.286,0.232-0.518,0.518-0.518C236.433,418.992,236.665,419.224,236.665,419.51z"/>
			<path style="fill:#3C170A;" d="M282.782,418.235c-0.478-1.754-0.957-2.232-0.957-2.232s-9.566,1.594-15.784,1.913
				c-1.069,0.055-2.055,0.065-3.002,0.044c-0.908,4.477-3.777,7.519-8.804,9.338c10.149-0.019,22.456-0.424,24.402-1.569
				C281.347,424.134,283.261,419.989,282.782,418.235z"/>
			<path style="fill:#3C170A;" d="M255.199,422.859c0,0.528-0.428,0.957-0.957,0.957c-0.528,0-0.957-0.428-0.957-0.957
				c0-0.528,0.428-0.957,0.957-0.957C254.771,421.902,255.199,422.33,255.199,422.859z"/>
			<circle style="fill:#3C170A;" cx="257.232" cy="419.949" r="0.598"/>
			<circle style="fill:#3C170A;" cx="247.427" cy="423.616" r="1.554"/>
			<polygon style="fill:#FFFFFF;" points="217.014,417.597 230.168,366.178 232.44,366.298 			"/>
			<path style="fill:#FFFFFF;" d="M235.668,378.136c0,0.462-0.375,0.837-0.837,0.837c-0.462,0-0.837-0.375-0.837-0.837
				c0-0.462,0.375-0.837,0.837-0.837C235.293,377.299,235.668,377.674,235.668,378.136z"/>
			<circle style="fill:#FFFFFF;" cx="237.701" cy="386.746" r="1.674"/>
			<path style="fill:#FFFFFF;" d="M232.798,392.306c0,0.363-0.294,0.658-0.658,0.658s-0.658-0.294-0.658-0.658
				c0-0.363,0.294-0.658,0.658-0.658S232.798,391.943,232.798,392.306z"/>
			<path style="fill:#733E2E;" d="M255.89,371.788c-3.003,4.362-5.931,8.242-6.944,8.501c-2.397,0.593-5.029-1.075-6.697-2.99
				c-0.618-0.704-2.273-3.423-4.115-6.586c0.334,0.161,1.223,0.519,2.397,0.643c1.52,0.161,0.952-0.556,2.546-0.395
				c1.606,0.161,1.285,0.803,2.879,0.964c1.594,0.148,1.433-0.408,3.349-1.038c1.915-0.643,2.311-1.285,2.867-0.087
				s2.076,0.717,2.545,0.643C255.124,371.368,255.643,371.355,255.89,371.788z"/>
			<circle style="fill:#B07F53;" cx="243.242" cy="373.273" r="0.478"/>
			<path style="fill:#B07F53;" d="M246.909,377.578c0,0.396-0.321,0.717-0.717,0.717c-0.396,0-0.717-0.321-0.717-0.717
				c0-0.396,0.321-0.717,0.717-0.717C246.587,376.861,246.909,377.182,246.909,377.578z"/>
			<path style="fill:#B07F53;" d="M247.945,376.064c0,0.198-0.161,0.359-0.359,0.359c-0.198,0-0.359-0.161-0.359-0.359
				c0-0.198,0.161-0.359,0.359-0.359C247.784,375.705,247.945,375.865,247.945,376.064z"/>
			<path style="fill:#B07F53;" d="M251.333,373.552c0,0.286-0.232,0.518-0.518,0.518c-0.286,0-0.518-0.232-0.518-0.518
				s0.232-0.518,0.518-0.518C251.101,373.034,251.333,373.266,251.333,373.552z"/>
		</g>
		<g>
			<path style="fill:#CDECF1;" d="M227.776,359.88c0,0-5.262-2.232-5.262-5.102c0-2.87,3.827-5.102,7.015-5.58
				c3.189-0.478,32.685-0.957,36.83,0.159c4.145,1.116,5.58,3.508,5.261,5.74c-0.319,2.232-2.551,4.464-7.015,4.783
				C260.142,360.199,239.256,362.75,227.776,359.88z"/>
			<path style="fill:#FFFFFF;" d="M227.377,354.021c0,0.242-0.196,0.438-0.439,0.438c-0.242,0-0.438-0.196-0.438-0.438
				c0-0.242,0.196-0.438,0.438-0.438C227.181,353.583,227.377,353.779,227.377,354.021z"/>
			<circle style="fill:#FFFFFF;" cx="229.729" cy="356.652" r="0.917"/>
			<path style="fill:#FFFFFF;" d="M232.639,355.018c0,0.264-0.214,0.478-0.478,0.478c-0.264,0-0.478-0.214-0.478-0.478
				c0-0.264,0.214-0.478,0.478-0.478C232.425,354.539,232.639,354.753,232.639,355.018z"/>
			<path style="fill:#8FCCE1;" d="M269.072,358.583c1.521-0.921,2.366-2.197,2.55-3.486c0.279-1.951-0.784-4.024-3.825-5.261
				c-0.624,0.303-0.914,0.788-0.401,1.115c0.877,0.558,1.594,1.913-0.159,2.79c-1.754,0.877-17.777,0.399-17.777,0.399
				s0.558,1.435-1.196,3.587c-1.754,2.152-12.436,2.232-12.436,2.232C244.832,361.436,264.824,359.565,269.072,358.583z"/>
			<path style="fill:#8FCCE1;" d="M266.417,353.339c-0.42,0.087-0.914,0.173-1.52,0.247c-3.831,0.482-33.363-0.482-34.672-0.853
				c-0.111-0.037-0.235-0.062-0.346-0.099c-1.211-0.334-2.335-0.593-1.569-1.273c0,0,0.26-0.111,1.038-0.272
				c1.372-0.247,4.349-0.63,10.33-0.692c9.329-0.099,25.949,0.21,27.382,1.075c0.222,0.136,0.408,0.259,0.556,0.395
				C268.308,352.437,268.234,352.944,266.417,353.339z"/>
		</g>
		<g>
			<path style="fill:#D4A681;" d="M223.112,333.055c0,0,1.913-1.196,5.859-0.957c3.946,0.239,5.142-1.555,9.805-3.109
				c4.664-1.555,3.587-2.511,7.773-1.315c4.185,1.196,4.424,1.315,6.577,3.587s5.381,3.468,8.849,2.392
				c3.468-1.076,4.424-3.109,6.936-0.957c2.511,2.152,4.903,1.674,5.381,3.109c0.478,1.435,3.826,2.75-2.631,5.381
				c-6.457,2.631-22.361,4.424-30.612,2.75C232.798,342.263,224.189,336.284,223.112,333.055z"/>
			<path style="fill:#FFDFD2;" d="M277.217,337.585v0.012c-0.371,1.829-1.384,4.028-2.484,5.387
				c-1.334,1.656-4.906,6.104-7.117,8.884c-0.469,0.581-0.877,1.075-1.199,1.47c-0.42,0.087-0.914,0.173-1.52,0.247
				c-1.903,0.235-10.157,0.124-18.127-0.099c-0.655-0.025-1.298-0.037-1.94-0.062c-0.803-0.025-1.594-0.049-2.36-0.074
				c-6.363-0.21-11.702-0.47-12.245-0.618c-0.111-0.037-0.235-0.062-0.346-0.099c-0.074-0.247-0.26-0.791-0.531-1.545
				c-0.766-2.101-2.249-5.721-4.127-8.192c-2.78-3.67-4.387-10.12-4.387-10.12s3.509-1.273,6.784,0.951
				c3.262,2.236,3.509,5.19,7.018,3.744c3.497-1.433,4.3-4.3,8.526-2.941c4.226,1.347,4.065,3.905,7.809,3.67
				c3.744-0.247,8.612-1.841,11.875-2.397c3.275-0.556,3.596,1.829,6.302,1.359c2.719-0.482,5.338-3.349,7.34-2.632
				C277.378,334.854,277.526,336.09,277.217,337.585z"/>
			<path style="fill:#D4A681;" d="M277.217,337.585v0.012c-0.371,1.829-1.384,4.028-2.484,5.387
				c-1.334,1.656-4.906,6.104-7.117,8.884c-0.469,0.581-0.877,1.075-1.199,1.47c-0.42,0.087-0.914,0.173-1.52,0.247
				c-1.903,0.235-10.157,0.124-18.127-0.099c1.248-1.433,2.669-3.311,3.843-5.486c2.632-4.906,3.583-8.724,3.583-8.724
				s6.697-2.99,9.811-2.039c3.114,0.964,5.622,1.198,7.538,0.358c1.915-0.84,2.99-1.792,4.782-1.31
				C276.785,336.399,277.056,336.905,277.217,337.585z"/>
			<path style="fill:#D4A681;" d="M249.526,343.837c-0.124,0.346-2.002,5.326-4.695,9.589c-0.803-0.025-1.594-0.049-2.36-0.074
				C244.472,350.955,247.883,346.704,249.526,343.837z"/>
			<path style="fill:#FFFFFF;" d="M228.733,339.213c0,0.363-0.294,0.658-0.658,0.658c-0.363,0-0.658-0.295-0.658-0.658
				s0.294-0.658,0.658-0.658C228.438,338.556,228.733,338.85,228.733,339.213z"/>
			<path style="fill:#FFFFFF;" d="M233.396,342.322c0,0.561-0.455,1.016-1.016,1.016c-0.561,0-1.016-0.455-1.016-1.016
				c0-0.561,0.455-1.017,1.016-1.017C232.941,341.306,233.396,341.761,233.396,342.322z"/>
		</g>
	</g>
	<g>
		<g>
			<path style="fill:#D1A080;" d="M131.134,418.903c0,0-0.247,4.871,30.076,4.871c0,0,30.832,0.23,29.73-4.871H131.134z"/>
			<path style="fill:#FFDFD2;" d="M190.942,418.9c0,2.408-13.39,4.357-29.9,4.357c-16.52,0-29.91-1.949-29.91-4.357
				c0-0.84,1.67-1.635,4.55-2.307c2.71-0.627,6.5-1.142,10.99-1.501c4.26-0.347,9.16-0.538,14.37-0.538
				C177.552,414.554,190.942,416.503,190.942,418.9z"/>
			<path style="fill:#FFFFFF;" d="M146.872,415.54c-13.74,1.008-14.55,3.606-14.55,3.606c-0.18-1.053,1.3-1.893,3.36-2.553
				c2.71-0.627,6.5-1.142,10.99-1.501L146.872,415.54z"/>
			<path style="fill:#D4A681;" d="M161.037,414.551c-0.59,0-1.175,0.003-1.757,0.008c-4.051,1.883-9.313,4.528-9.313,4.528
				s2.58,1.16,8.143,2.241c21.232,0.184,24.988-1.618,24.988-1.618c-1.411,1.688-13.358,2.138-21.26,2.25
				c0.295,0.043-8.837,0.622-8.837,0.622c3.097,0.488,18.964,0.373,18.964,0.373c11.109-0.635,18.977-2.209,18.977-4.051
				C190.94,416.5,177.552,414.551,161.037,414.551z"/>
			<path style="fill:#D4A681;" d="M145.146,418.215c0,0-3.29-0.023-3.817,0.993c-0.527,1.017,3.784,2.122,11.687,2.229
				c0,0-6.329,0.585-11.151-1.052c0,0-1.383-0.397-0.791-1.438C141.666,417.906,145.146,418.215,145.146,418.215z"/>
		</g>
		<g>
			<path style="fill:#D4A681;" d="M190.483,408.526c-3.29,2.889-12.77,3.539-12.77,3.539l1.87-3.897c0,0,2.3,1.534,5.2,0.134
				c0.05-0.011,0.1-0.045,0.15-0.067c2.5-1.277,5.14-4.043,4.51-6.047c-0.11-0.381-0.34-0.728-0.7-1.03
				c-2.32-1.949-4.9,3.976-6.58,2.968c-1.68-1.019,0-3.83,0-3.83s4.45-3.539,8.13-1.881
				C193.964,400.071,193.774,405.637,190.483,408.526z"/>
			<path style="fill:#FFDFD2;" d="M188.673,406.432c-0.98,1.098-2.58,1.624-3.89,1.87c0.05-0.011,0.1-0.045,0.15-0.067
				c2.5-1.277,5.14-4.043,4.51-6.047C189.954,403.151,190.084,404.853,188.673,406.432z"/>
		</g>
		<g>
			<path style="fill:#FFDFD2;" d="M184.102,396.412c-1.1,16.138-11.81,22.465-11.81,22.465c0,0.661-5.04,1.187-11.25,1.187
				c-5.54,0-10.14-0.414-11.08-0.974l-0.01-0.011c-0.09-0.045-0.14-0.101-0.16-0.157c-0.01-0.011-0.01-0.034-0.01-0.045
				c0,0-0.03-0.022-0.1-0.067c-0.01,0-0.02-0.011-0.02-0.011c-1.18-0.75-10.66-7.257-11.69-22.387H184.102z"/>
			<path style="fill:#D4A681;" d="M159.774,419.456c0,0,9.097-7.748,10.968-20.247c0,0,12.78-0.183,13.358-2.801
				c0,0-1.487,15.747-12.583,22.496C171.516,418.903,163.387,420.396,159.774,419.456z"/>
			<path style="fill:#D4A681;" d="M170.032,399.353c0,0-2.387,11.271-9.226,17.702c0,0,6.129-8.165,7.355-17.557L170.032,399.353z"
				/>
			<path style="fill:#FFFFFF;" d="M149.662,418.799c-1.18-0.75-10.66-7.257-11.69-22.387h12.94c0.86,1.221,0.99,2.061,0.99,2.061
				l-11.03,0.179C140.872,398.651,139.852,409.056,149.662,418.799z"/>
			<ellipse style="fill:#D1A080;" cx="161.037" cy="396.407" rx="23.063" ry="2.246"/>
			<ellipse style="fill:#FFFFFF;" cx="144.839" cy="403.001" rx="0.484" ry="0.542"/>
			<path style="fill:#FFFFFF;" d="M148.654,405.468c0,0.704-0.509,1.274-1.138,1.274c-0.628,0-1.138-0.57-1.138-1.274
				c0-0.704,0.51-1.274,1.138-1.274C148.145,404.194,148.654,404.764,148.654,405.468z"/>
		</g>
	</g>
	<g>
		<path style="fill:#A7683B;" d="M349.401,426.436c0,0,7.398-7.039,9.835-9.626c0,0,5.047-12.592,3.916-28.175
			c-1.131-15.583-3.016-25.452-3.016-25.452l-2.419-16.603c0,0-1.877,1.38-6.071,15.932
			C347.452,377.063,349.401,426.436,349.401,426.436z"/>
		<path style="fill:#EBB584;" d="M357.717,346.58c0,0,5.465,23.261,8.911,38.84c3.447,15.579,4.849,35.786,4.849,35.786
			l-12.242-4.396c0,0,2.251-17.537,1.935-28.049C360.854,378.248,357.717,346.58,357.717,346.58z"/>
		<path style="fill:#D4A681;" d="M359.058,340.391l-1.342,6.184c0,0-14.269-1.417-16.4-2.019
			c-2.141-0.592-12.774-4.241-12.774-4.241l0.541-5.186c0,0,11.193,1.458,15.991,2.401c4.489,0.891,12.849,2.629,13.881,2.844
			l0.072,0.008L359.058,340.391z"/>
		<path style="fill:#EBB584;" d="M311.797,417.046c0,0-2.42-40.822,16.748-76.735l29.172,6.268c0,0-3.726,27.905-5.87,49.012
			s-2.446,30.844-2.446,30.844s-18.872-0.424-22.875-1.495C322.524,423.87,311.797,417.046,311.797,417.046z"/>
		<path style="fill:#FFFFFF;" d="M330.735,349.598c0.014,0.472-0.357,0.867-0.829,0.881c-0.472,0.014-0.867-0.357-0.881-0.829
			c-0.014-0.472,0.357-0.867,0.829-0.881C330.326,348.754,330.72,349.126,330.735,349.598z"/>
		<path style="fill:#FFFFFF;" d="M332.069,354.541c0.01,0.327-0.247,0.6-0.574,0.61c-0.327,0.01-0.6-0.247-0.61-0.574
			c-0.01-0.327,0.247-0.6,0.574-0.61C331.786,353.957,332.059,354.214,332.069,354.541z"/>
		<path style="fill:#FFFFFF;" d="M327.835,412.784c0.009,0.316-0.239,0.58-0.555,0.589s-0.58-0.239-0.589-0.555
			c-0.01-0.316,0.239-0.579,0.555-0.589C327.561,412.22,327.825,412.468,327.835,412.784z"/>
		<path style="fill:#A7683B;" d="M326.984,422.545c0,0,10.96-5.227,13.893-8.888c2.934-3.662,7.659-15.518,7.659-15.518
			l5.038-26.848l-5.337,53.857C348.237,425.146,332.94,425.522,326.984,422.545z"/>
		<path style="fill:#733E2E;" d="M337.922,378.026c-0.1-0.89-0.308-1.831-0.671-2.555c-0.137-0.271-0.298-0.485-0.477-0.69
			c-0.235-0.269-0.431-0.629-0.701-0.821c-1.086-0.772-2.776,0.256-3.819,0.875c-1.31,0.777-2.565,1.819-3.656,3.167
			c-2.131,2.632-3.594,6.58-3.164,10.587c-0.433,1.743,0.685,3.13,1.789,3.287c1.322,0.189,2.864-0.485,4.129-1.086
			c2.614-1.241,4.993-3.619,6.062-7.523C337.871,381.592,338.121,379.803,337.922,378.026z M331.408,378.494
			c0.172-0.049,0.346-0.076,0.521-0.077c0.093-0.001,0.186,0.005,0.279,0.018c0.087,0.013,0.183,0.022,0.266,0.062
			c0.098,0.048,0.157,0.168,0.135,0.328c-0.021,0.157-0.129,0.228-0.225,0.212c-0.082-0.014-0.163-0.05-0.245-0.068
			c-0.044-0.01-0.089-0.02-0.133-0.028c-0.019-0.003-0.038-0.007-0.057-0.009c0.001,0-0.054-0.008-0.03-0.005
			c-0.167-0.02-0.335-0.013-0.503,0.013c-0.081,0.012-0.152-0.094-0.154-0.21C331.26,378.598,331.328,378.516,331.408,378.494z
			 M327.714,383.28c0.207-0.033,0.415-0.023,0.619,0.025c0.101,0.024,0.201,0.06,0.301,0.092c0.045,0.014,0.09,0.031,0.134,0.05
			c0.065,0.027,0.114,0.062,0.163,0.13c0.04,0.056,0.05,0.149,0.023,0.223c-0.029,0.08-0.084,0.104-0.14,0.097
			c-0.101-0.013-0.188-0.099-0.281-0.154c-0.082-0.049-0.171-0.072-0.258-0.093c-0.183-0.043-0.37-0.047-0.556-0.018
			C327.567,383.658,327.562,383.304,327.714,383.28z M331.551,387.47c-0.043,0.116-0.133,0.157-0.213,0.121
			c-0.03-0.014-0.06-0.027-0.09-0.04c-0.039-0.018-0.079-0.033-0.115-0.064c-0.028-0.024-0.055-0.05-0.083-0.075
			c-0.11-0.1-0.221-0.2-0.331-0.3c-0.077-0.07-0.105-0.2-0.064-0.326c0.041-0.125,0.144-0.154,0.221-0.105
			c0.12,0.074,0.239,0.149,0.359,0.224c0.03,0.019,0.06,0.037,0.09,0.056c0.037,0.024,0.069,0.064,0.1,0.1
			c0.025,0.028,0.049,0.057,0.074,0.085C331.566,387.22,331.594,387.354,331.551,387.47z M335.463,376.969
			c-0.374,0.601-0.805,1.13-1.058,1.872c-0.116,0.339-0.178,0.702-0.334,1.011c-0.146,0.288-0.34,0.491-0.527,0.714
			c-0.029,0.035-0.051,0.082-0.079,0.119c0.155-0.034,0.322-0.063,0.467-0.005c0.164,0.066,0.314,0.199,0.462,0.312
			c0.064,0.048,0.129,0.097,0.196,0.134c0.073,0.04,0.154,0.048,0.224,0.093c0.048,0.031,0.045,0.136,0.003,0.177
			c-0.12,0.116-0.305,0.1-0.442,0.091c-0.156-0.01-0.312-0.039-0.469-0.026c-0.175,0.015-0.333-0.041-0.505-0.041
			c-0.079,0-0.159,0.004-0.238,0.01c-0.036,0.003-0.066-0.007-0.098-0.013c-0.173,0.417-0.313,0.872-0.455,1.3
			c-0.209,0.632-0.52,1.205-0.866,1.691c0.111,0.007,0.226,0.043,0.314,0.064c0.172,0.041,0.342,0.096,0.511,0.16
			c0.35,0.132,0.694,0.292,1.04,0.444c0.182,0.08,0.112,0.516-0.073,0.437c-0.34-0.145-0.679-0.299-1.023-0.427
			c-0.175-0.065-0.351-0.122-0.53-0.162c-0.086-0.019-0.173-0.035-0.26-0.046c-0.091-0.011-0.164-0.015-0.235-0.104
			c-0.008-0.01-0.004-0.027-0.01-0.04c-0.33,0.391-0.691,0.727-1.072,0.991c-0.194,0.134-0.399,0.162-0.502,0.434
			c-0.085,0.222-0.124,0.438-0.257,0.62c-0.22,0.3-0.527,0.586-0.806,0.73c-0.376,0.195-0.722,0.514-0.785,1.156
			c-0.018,0.19-0.215,0.127-0.194-0.063c0.05-0.466,0.239-0.764,0.476-1.059c0.154-0.191,0.266-0.417,0.409-0.617
			c0.119-0.166,0.28-0.284,0.376-0.486c0.215-0.455,0.111-1.024,0.478-1.336c0.196-0.167,0.415-0.264,0.61-0.439
			c0.252-0.225,0.44-0.511,0.651-0.808c0.815-1.149,1.517-2.478,2.359-3.579c0.218-0.285,0.462-0.519,0.61-0.901
			c0.138-0.355,0.201-0.759,0.347-1.112c0.273-0.658,0.656-1.215,1.065-1.685C335.407,376.391,335.596,376.756,335.463,376.969z"/>
		<path style="fill:#FFFFFF;" d="M358.955,340.374l-13.69-1.957l-0.722,2.606l-0.179-2.877l-1.003-0.267l-0.745,4.884l0.048-4.863
			l-8.36-1.041l0.06,1.988l-0.973-2.35l-3.824-0.285l-1.025,4.103l0.541-5.186c0,0,11.193,1.458,15.991,2.401
			C349.562,338.42,357.922,340.159,358.955,340.374z"/>
	</g>
	<g>
		<g>
			<path style="fill:#3C170A;" d="M313.334,422.103c0,0,0.069,1.277-0.611,2.184c-0.68,0.906-3.474,2.657-4.868,3.234
				c-1.394,0.577-3.401,0.206-4.138-0.309c-0.737-0.515-1.312-2.307-1.312-2.307l6.075-1.399L313.334,422.103z"/>
			<path style="fill:#733E2E;" d="M309.409,425.346c-3.133,1.337-5.249,1.064-5.96,0.57c-0.715-0.494-1.69-1.064-0.549-2.035
				c0,0,0.043-0.055,0.141-0.158c0,0,0.004-0.004,0.009-0.009c0.426-0.434,1.822-1.648,4.794-2.469
				c3.444-0.954,4.411-0.553,5.139,0.221c0.051,0.051,0.102,0.106,0.149,0.162C313.883,422.511,312.538,424.005,309.409,425.346z"/>
			<g>
				<path style="fill:#3C170A;" d="M308.705,423.185c0.224-0.194,0.542-0.239,0.817-0.322c0.498-0.151,0.86-0.516,1.322-0.732
					c0.04-0.019,0.023-0.072-0.011-0.085c-0.231-0.087-0.361-0.05-0.577,0.083c-0.242,0.148-0.451,0.318-0.726,0.405
					c-0.268,0.085-0.545,0.133-0.806,0.24c-0.243,0.099-0.398,0.257-0.602,0.413c-0.271,0.208-0.586,0.21-0.906,0.275
					c-0.303,0.062-0.634,0.205-0.906,0.35c-0.278,0.148-0.522,0.349-0.807,0.487c-0.316,0.153-0.623,0.34-0.923,0.522
					c-0.113,0.069-0.013,0.242,0.104,0.178c0.281-0.153,0.567-0.283,0.861-0.408c0.259-0.11,0.518-0.16,0.784-0.219
					c0.047,0.018,0.09,0.032,0.141,0.038c0.053,0.007,0.106,0.015,0.159,0.024c0.106,0.018,0.211,0.04,0.316,0.066
					c0.105,0.026,0.208,0.056,0.311,0.09c0.098,0.032,0.209,0.096,0.314,0.086c0.081-0.008,0.129-0.101,0.068-0.165
					c-0.079-0.083-0.215-0.105-0.323-0.134c-0.108-0.029-0.217-0.054-0.327-0.075c-0.082-0.016-0.165-0.027-0.247-0.038
					c0.23-0.065,0.462-0.14,0.673-0.238c0.26-0.122,0.544-0.232,0.795-0.371c0.063-0.035,0.115-0.077,0.164-0.122
					c0.129,0.042,0.258,0.084,0.386,0.128c0.078,0.027,0.154,0.059,0.235,0.074c0.04,0.008,0.081,0.016,0.121,0.024
					c0.04,0.008,0.077,0.019,0.118,0.011c0.046-0.009,0.049-0.064,0.025-0.094c-0.024-0.031-0.065-0.046-0.099-0.065
					c-0.036-0.019-0.071-0.038-0.107-0.058c-0.075-0.04-0.158-0.063-0.238-0.09c-0.095-0.032-0.191-0.062-0.287-0.092
					C308.579,423.31,308.636,423.245,308.705,423.185z"/>
				<path style="fill:#3C170A;" d="M304.82,423.561c0.071-0.016,0.144-0.032,0.217-0.033c0.035,0,0.075-0.004,0.109,0.004
					c0.031,0.007,0.062,0.025,0.091,0.039c0.033,0.016,0.064,0.036,0.098,0.048c0.036,0.013,0.075,0.018,0.112,0.028
					c0.032,0.008,0.064,0.017,0.096,0.027c0.047,0.015,0.087,0.015,0.136,0.013c0.133-0.006,0.169-0.167,0.065-0.24
					c-0.039-0.027-0.075-0.049-0.122-0.057c-0.045-0.008-0.091-0.014-0.137-0.019c-0.038-0.004-0.077-0.01-0.115-0.007
					c-0.04,0.003-0.079,0.016-0.117,0.028c-0.033,0.01-0.065,0.024-0.097,0.034c-0.037,0.011-0.08,0.008-0.118,0.011
					c-0.077,0.007-0.154,0.009-0.232,0.019C304.729,423.465,304.744,423.578,304.82,423.561z"/>
				<path style="fill:#3C170A;" d="M307.737,422.354c0.068,0.012,0.131,0.027,0.195,0.052c0.063,0.024,0.131,0.037,0.195,0.056
					c0.065,0.02,0.129,0.045,0.195,0.057c0.033,0.006,0.067,0.014,0.1,0.02c0.035,0.006,0.07-0.004,0.104-0.009
					c0.04-0.006,0.045-0.059,0.022-0.083c-0.023-0.025-0.044-0.05-0.075-0.066c-0.032-0.017-0.067-0.03-0.101-0.044
					c-0.065-0.027-0.136-0.038-0.205-0.05c-0.068-0.012-0.14-0.028-0.209-0.028c-0.033,0-0.067,0.003-0.1,0.001
					c-0.036-0.003-0.072-0.007-0.108-0.009C307.692,422.246,307.677,422.344,307.737,422.354z"/>
				<path style="fill:#3C170A;" d="M311.04,423.167c-0.054-0.041-0.133-0.054-0.197-0.074c-0.068-0.021-0.139-0.034-0.208-0.053
					c-0.135-0.036-0.269-0.078-0.4-0.126c-0.049-0.018-0.082,0.061-0.036,0.085c0.13,0.067,0.262,0.128,0.397,0.184
					c0.066,0.027,0.133,0.057,0.202,0.075c0.074,0.019,0.151,0.044,0.226,0.031C311.087,423.278,311.08,423.198,311.04,423.167z"/>
			</g>
		</g>
		<g>
			<path style="fill:#3C170A;" d="M295.256,424.151c0,0,0.276,2.813,2.521,4.216c2.244,1.403,7.266,1.922,9.209-1.592
				L295.256,424.151z"/>
			<path style="fill:#733E2E;" d="M304.791,427.666c-3.088,0.469-6.779-0.889-7.857-1.778c-0.633-0.527-1.387-1-1.609-1.483
				c-0.159-0.333-0.068-0.676,0.488-1.039c0,0,1.029-0.797,4.209,0.043c3.18,0.846,5.75,1.169,6.499,1.87
				c0.121,0.116,0.242,0.242,0.338,0.382C307.372,426.361,307.372,427.274,304.791,427.666z"/>
			<path style="fill:#3C170A;" d="M305.219,426.281c-0.758-0.223-1.558-0.435-2.342-0.522c-0.427-0.048-0.855-0.064-1.222-0.313
				c-0.277-0.188-0.476-0.426-0.824-0.47c-0.381-0.048-0.728,0.032-1.09-0.143c-0.26-0.126-0.501-0.276-0.786-0.346
				c-0.136-0.034-0.268-0.042-0.408-0.04c-0.29,0.004-0.495-0.017-0.752-0.153c-0.257-0.136-0.569-0.182-0.857-0.153
				c-0.071,0.007-0.074,0.116,0,0.113c0.454-0.018,0.638,0.268,1.012,0.412c0.362,0.139,0.743-0.009,1.103,0.176
				c0.277,0.142,0.529,0.337,0.812,0.469c0.279,0.13,0.544,0.108,0.84,0.14c0.387,0.042,0.63,0.309,0.978,0.438
				c0.311,0.116,0.654,0.138,0.982,0.163c0.864,0.066,1.671,0.157,2.504,0.41C305.285,426.499,305.336,426.315,305.219,426.281z"/>
			<path style="fill:#3C170A;" d="M304.517,425.319c-0.117,0.025-0.231,0.09-0.344,0.13c-0.109,0.038-0.22,0.069-0.329,0.107
				c-0.112,0.04-0.223,0.085-0.335,0.127c-0.12,0.046-0.222,0.102-0.319,0.188c-0.031,0.027-0.005,0.076,0.032,0.077
				c0.131,0.006,0.247-0.017,0.371-0.057c0.116-0.038,0.236-0.071,0.35-0.116c0.113-0.045,0.224-0.093,0.334-0.144
				c0.108-0.05,0.231-0.098,0.318-0.18C304.655,425.395,304.591,425.303,304.517,425.319z"/>
			<path style="fill:#3C170A;" d="M301.729,424.679c-0.049,0.023-0.089,0.059-0.137,0.085c-0.047,0.025-0.096,0.044-0.147,0.059
				c-0.107,0.032-0.217,0.049-0.327,0.065c-0.217,0.032-0.442,0.063-0.626,0.191c-0.051,0.035-0.005,0.119,0.049,0.085
				c0.199-0.125,0.438-0.134,0.665-0.159c0.11-0.012,0.22-0.026,0.326-0.059c0.104-0.032,0.229-0.079,0.289-0.174
				C301.862,424.71,301.786,424.653,301.729,424.679z"/>
			<path style="fill:#3C170A;" d="M299.305,424.243c-0.104-0.001-0.207,0.045-0.3,0.086c-0.088,0.039-0.172,0.088-0.249,0.145
				c-0.047,0.034-0.066,0.094-0.027,0.144c0.038,0.049,0.101,0.047,0.147,0.01c0.009-0.007,0.018-0.014,0.027-0.021
				c-0.016,0.013,0.012-0.009,0.015-0.011c0.019-0.014,0.038-0.027,0.057-0.039c0.038-0.025,0.078-0.049,0.119-0.07
				c0.02-0.01,0.041-0.021,0.062-0.03c0.01-0.005,0.021-0.009,0.031-0.014c-0.013,0.006,0.017-0.007,0.019-0.008
				c0.022-0.008,0.043-0.016,0.065-0.023c0.026-0.009,0.048-0.021,0.072-0.034C299.404,424.341,299.375,424.243,299.305,424.243z"/>
			<path style="fill:#3C170A;" d="M298.875,425.242c-0.013-0.001-0.027-0.003-0.039-0.002c-0.021,0.001-0.038,0.01-0.056,0.02
				c-0.023,0.012-0.046,0.024-0.069,0.036c-0.046,0.023-0.093,0.045-0.141,0.065c-0.101,0.042-0.205,0.077-0.311,0.104
				c-0.062,0.017-0.035,0.106,0.026,0.095c0.111-0.021,0.221-0.049,0.328-0.084c0.053-0.018,0.104-0.037,0.156-0.058
				c0.028-0.011,0.056-0.023,0.083-0.035c0.032-0.015,0.048-0.038,0.066-0.067C298.939,425.283,298.911,425.244,298.875,425.242z"/>
			<path style="fill:#3C170A;" d="M301.461,426.136c-0.076-0.042-0.165,0.016-0.237,0.045c-0.073,0.029-0.146,0.058-0.218,0.087
				c-0.145,0.058-0.293,0.111-0.439,0.167c-0.076,0.029-0.046,0.149,0.034,0.124c0.149-0.047,0.297-0.097,0.446-0.142
				c0.075-0.022,0.149-0.045,0.224-0.067c0.068-0.02,0.188-0.033,0.219-0.105C301.506,426.206,301.503,426.159,301.461,426.136z"/>
		</g>
		<g>
			<path style="fill:#3C170A;" d="M374.239,424.964c0,0-0.752,2.21-2.821,2.914c-2.069,0.705-6.205,0.176-7.104-3.016
				L374.239,424.964z"/>
			<path style="fill:#733E2E;" d="M365.909,425.992c2.394,0.959,5.618,0.563,6.652,0.051c0.608-0.304,1.304-0.543,1.573-0.889
				c0.191-0.238,0.182-0.531-0.197-0.927c0,0-0.677-0.835-3.392-0.758c-2.716,0.081-4.844-0.144-5.578,0.279
				c-0.119,0.071-0.24,0.149-0.344,0.243C364.081,424.457,363.908,425.191,365.909,425.992z"/>
			<path style="fill:#3C170A;" d="M365.826,424.798c0.651-0.036,1.335-0.056,1.982,0.021c0.352,0.042,0.699,0.11,1.042-0.021
				c0.258-0.099,0.463-0.253,0.751-0.223c0.316,0.033,0.579,0.163,0.903,0.09c0.233-0.053,0.455-0.127,0.697-0.13
				c0.115-0.001,0.224,0.017,0.335,0.045c0.233,0.058,0.402,0.08,0.634,0.019c0.233-0.061,0.492-0.039,0.718,0.039
				c0.056,0.019,0.038,0.107-0.021,0.091c-0.362-0.1-0.563,0.095-0.891,0.141c-0.317,0.044-0.595-0.147-0.92-0.066
				c-0.25,0.062-0.488,0.171-0.741,0.224c-0.249,0.052-0.458-0.016-0.702-0.046c-0.319-0.039-0.565,0.13-0.869,0.168
				c-0.272,0.034-0.552-0.012-0.82-0.054c-0.707-0.11-1.373-0.189-2.091-0.142C365.732,424.961,365.726,424.804,365.826,424.798z"/>
			<path style="fill:#3C170A;" d="M366.572,424.157c0.089,0.042,0.169,0.116,0.252,0.169c0.08,0.051,0.164,0.097,0.244,0.148
				c0.083,0.053,0.164,0.11,0.245,0.165c0.088,0.06,0.159,0.124,0.221,0.211c0.02,0.028-0.01,0.062-0.04,0.056
				c-0.107-0.02-0.196-0.06-0.288-0.116c-0.086-0.052-0.176-0.102-0.259-0.159c-0.082-0.057-0.163-0.117-0.241-0.179
				c-0.077-0.06-0.167-0.122-0.222-0.204C366.447,424.192,366.516,424.13,366.572,424.157z"/>
			<path style="fill:#3C170A;" d="M368.935,424.168c0.035,0.027,0.06,0.064,0.094,0.094c0.033,0.029,0.069,0.053,0.107,0.075
				c0.08,0.046,0.165,0.08,0.251,0.114c0.168,0.067,0.343,0.134,0.467,0.272c0.034,0.038-0.019,0.096-0.056,0.059
				c-0.136-0.138-0.327-0.19-0.504-0.253c-0.086-0.03-0.172-0.063-0.251-0.109c-0.078-0.045-0.169-0.107-0.2-0.194
				C368.822,424.167,368.894,424.136,368.935,424.168z"/>
			<path style="fill:#3C170A;" d="M370.966,424.274c0.083,0.019,0.158,0.075,0.225,0.126c0.063,0.048,0.121,0.103,0.173,0.164
				c0.031,0.036,0.035,0.088-0.005,0.121c-0.04,0.033-0.09,0.019-0.12-0.02c-0.006-0.008-0.012-0.015-0.017-0.023
				c0.01,0.013-0.008-0.009-0.01-0.012c-0.012-0.014-0.025-0.029-0.038-0.042c-0.026-0.027-0.054-0.054-0.082-0.079
				c-0.014-0.012-0.029-0.024-0.044-0.036c-0.008-0.006-0.015-0.011-0.023-0.017c0.01,0.007-0.012-0.008-0.014-0.01
				c-0.016-0.011-0.032-0.021-0.048-0.031c-0.019-0.012-0.035-0.026-0.052-0.041C370.867,424.335,370.91,424.261,370.966,424.274z"
				/>
			<path style="fill:#3C170A;" d="M371.123,425.159c0.01,0.002,0.022,0.003,0.032,0.006c0.017,0.005,0.028,0.016,0.041,0.027
				c0.016,0.014,0.032,0.028,0.049,0.042c0.033,0.027,0.067,0.054,0.102,0.079c0.073,0.053,0.15,0.1,0.23,0.143
				c0.047,0.025,0.008,0.092-0.039,0.071c-0.085-0.037-0.168-0.081-0.248-0.129c-0.039-0.024-0.077-0.049-0.114-0.076
				c-0.02-0.014-0.04-0.029-0.06-0.044c-0.023-0.018-0.031-0.039-0.04-0.066C371.064,425.18,371.094,425.153,371.123,425.159z"/>
			<path style="fill:#3C170A;" d="M368.875,425.39c0.069-0.019,0.129,0.043,0.182,0.081c0.053,0.037,0.106,0.074,0.159,0.111
				c0.106,0.074,0.214,0.145,0.322,0.217c0.056,0.037,0.009,0.129-0.051,0.093c-0.111-0.066-0.22-0.134-0.332-0.198
				c-0.056-0.032-0.112-0.064-0.168-0.096c-0.051-0.029-0.145-0.062-0.156-0.126C368.826,425.438,368.838,425.4,368.875,425.39z"/>
		</g>
		<g>
			<path style="fill:#3C170A;" d="M375.432,418.301c0,0,0.793,2.329,2.974,3.073c2.181,0.743,6.541,0.186,7.49-3.18L375.432,418.301
				z"/>
			<path style="fill:#733E2E;" d="M384.214,419.385c-2.524,1.011-5.923,0.594-7.013,0.054c-0.641-0.321-1.374-0.572-1.659-0.938
				c-0.201-0.251-0.192-0.56,0.207-0.978c0,0,0.714-0.88,3.576-0.799c2.863,0.085,5.107-0.151,5.881,0.294
				c0.125,0.074,0.253,0.157,0.363,0.256C386.142,417.766,386.323,418.54,384.214,419.385z"/>
			<path style="fill:#3C170A;" d="M384.301,418.126c-0.687-0.038-1.407-0.059-2.089,0.023c-0.371,0.044-0.737,0.115-1.098-0.023
				c-0.272-0.104-0.488-0.266-0.792-0.235c-0.333,0.035-0.61,0.172-0.952,0.095c-0.246-0.056-0.48-0.134-0.735-0.138
				c-0.122-0.002-0.236,0.018-0.354,0.048c-0.245,0.061-0.423,0.084-0.668,0.02c-0.245-0.064-0.519-0.041-0.757,0.041
				c-0.059,0.02-0.04,0.113,0.023,0.096c0.381-0.106,0.594,0.101,0.94,0.148c0.334,0.046,0.628-0.155,0.97-0.07
				c0.264,0.066,0.515,0.181,0.782,0.236c0.263,0.055,0.483-0.017,0.74-0.048c0.336-0.041,0.595,0.137,0.916,0.177
				c0.287,0.036,0.582-0.013,0.865-0.057c0.745-0.116,1.448-0.199,2.204-0.15C384.4,418.297,384.406,418.132,384.301,418.126z"/>
			<path style="fill:#3C170A;" d="M383.515,417.45c-0.094,0.045-0.178,0.122-0.266,0.179c-0.085,0.054-0.173,0.102-0.258,0.156
				c-0.088,0.056-0.172,0.116-0.259,0.174c-0.093,0.063-0.168,0.131-0.233,0.223c-0.021,0.029,0.011,0.065,0.043,0.059
				c0.112-0.021,0.206-0.063,0.303-0.122c0.091-0.055,0.186-0.107,0.273-0.168c0.086-0.06,0.172-0.123,0.254-0.188
				c0.081-0.064,0.176-0.129,0.234-0.216C383.646,417.487,383.574,417.422,383.515,417.45z"/>
			<path style="fill:#3C170A;" d="M381.024,417.461c-0.037,0.029-0.064,0.067-0.099,0.099c-0.035,0.031-0.073,0.056-0.113,0.079
				c-0.084,0.048-0.174,0.084-0.264,0.12c-0.178,0.07-0.362,0.141-0.493,0.287c-0.036,0.04,0.02,0.102,0.059,0.062
				c0.143-0.146,0.345-0.201,0.532-0.267c0.091-0.032,0.181-0.066,0.265-0.115c0.082-0.048,0.178-0.112,0.211-0.205
				C381.143,417.461,381.067,417.428,381.024,417.461z"/>
			<path style="fill:#3C170A;" d="M378.883,417.573c-0.088,0.02-0.167,0.079-0.238,0.133c-0.067,0.051-0.128,0.109-0.183,0.172
				c-0.033,0.039-0.037,0.093,0.005,0.128c0.042,0.034,0.095,0.02,0.126-0.021c0.006-0.008,0.012-0.016,0.018-0.024
				c-0.011,0.014,0.008-0.01,0.01-0.012c0.013-0.015,0.026-0.03,0.04-0.045c0.027-0.029,0.057-0.057,0.087-0.083
				c0.015-0.013,0.031-0.026,0.046-0.038c0.008-0.006,0.016-0.012,0.024-0.018c-0.01,0.007,0.013-0.009,0.015-0.01
				c0.017-0.011,0.034-0.022,0.051-0.033c0.02-0.013,0.037-0.028,0.054-0.044C378.987,417.637,378.942,417.56,378.883,417.573z"/>
			<path style="fill:#3C170A;" d="M378.717,418.506c-0.011,0.002-0.023,0.003-0.034,0.006c-0.018,0.005-0.03,0.016-0.043,0.028
				c-0.017,0.015-0.034,0.03-0.051,0.044c-0.035,0.029-0.07,0.057-0.107,0.083c-0.077,0.056-0.159,0.106-0.243,0.15
				c-0.049,0.026-0.009,0.097,0.041,0.075c0.09-0.039,0.177-0.085,0.261-0.136c0.041-0.025,0.081-0.052,0.121-0.08
				c0.021-0.015,0.043-0.031,0.063-0.047c0.025-0.019,0.033-0.041,0.043-0.07C378.779,418.528,378.748,418.5,378.717,418.506z"/>
			<path style="fill:#3C170A;" d="M381.087,418.75c-0.073-0.02-0.136,0.046-0.192,0.085c-0.056,0.039-0.112,0.078-0.168,0.117
				c-0.112,0.078-0.226,0.152-0.339,0.228c-0.059,0.039-0.009,0.136,0.054,0.098c0.116-0.07,0.232-0.141,0.35-0.209
				c0.059-0.034,0.118-0.067,0.177-0.101c0.053-0.03,0.153-0.066,0.165-0.133C381.139,418.8,381.126,418.761,381.087,418.75z"/>
		</g>
	</g>
</g>
</svg>
